<svg width="25" height="25" viewBox="0 0 25 25" fill="none" xmlns="http://www.w3.org/2000/svg">
<path d="M22.0391 1.87496C22.6717 2.22925 23.1377 2.82028 23.3346 3.51809C23.5315 4.2159 23.4432 4.96334 23.0891 5.59605L14.0969 21.6539C13.8692 22.0607 13.5533 22.4114 13.1725 22.6802C12.7916 22.9491 12.3554 23.1294 11.8958 23.2078C11.4363 23.2863 10.965 23.2609 10.5165 23.1335C10.068 23.0062 9.65373 22.7801 9.30396 22.4718L2.48912 16.4687C1.94501 15.9892 1.61365 15.3133 1.56794 14.5895C1.52223 13.8657 1.76591 13.1534 2.24537 12.6093C2.72483 12.0652 3.4008 11.7339 4.12458 11.6882C4.84835 11.6424 5.56064 11.8861 6.10474 12.3656L10.7422 16.4515L18.3172 2.92496C18.4927 2.61162 18.7281 2.33591 19.0101 2.11356C19.2921 1.89122 19.6151 1.72659 19.9607 1.62909C20.3063 1.53159 20.6678 1.50311 21.0244 1.5453C21.381 1.58749 21.7258 1.69951 22.0391 1.87496Z" fill="#404980"/>
</svg>
