<?xml version="1.0" encoding="utf-8"?>
<!-- Generator: Adobe Illustrator 24.3.0, SVG Export Plug-In . SVG Version: 6.00 Build 0)  -->
<svg version="1.1" id="Layer_1" xmlns="http://www.w3.org/2000/svg" xmlns:xlink="http://www.w3.org/1999/xlink" x="0px" y="0px"
	 viewBox="0 0 595.3 595.3" style="enable-background:new 0 0 595.3 595.3;" xml:space="preserve">
<style type="text/css">
	.st0{display:none;}
	.st1{display:inline;}
	.st2{fill:#FCC00E;}
	.st3{fill:#FCC00E;stroke:#FCC00E;stroke-miterlimit:10;}
	.st4{fill:#FCC00E;stroke:#FCC00E;stroke-width:0.5;stroke-miterlimit:10;}
	.st5{fill:#FCC00E;stroke:#FCC00E;stroke-width:2;stroke-miterlimit:10;}
	.st6{fill:#FCC00E;stroke:#FCC00E;stroke-width:3;stroke-miterlimit:10;}
</style>
<g id="Layer_1_2_" class="st0">
	<g id="Layer_1_1_" class="st1">
	</g>
	<g id="Layer_2_1_" class="st1">
		
			<image style="overflow:visible;enable-background:new    ;" width="597" height="597" xlink:href="F91F57C5.png"  transform="matrix(0.9983 0 0 0.9983 -0.36 4.6401)">
		</image>
	</g>
	<g id="Layer_2_2_" class="st1">
		<g>
			<g>
				<path class="st2" d="M-265.2,129.9c0.5-0.9,0.3-2-0.5-2.7c-0.6-0.5-1.3-0.8-2.1-0.9c-1.5-0.3-3-0.4-4.5-0.1
					c-2.7,0.6-4.9,3-4.9,5.8c0,3.2,3,4.9,5.8,5.2c2.5,0.3,5.5-0.7,6.8-3.1c1.3-2.4,0.7-6-1.9-7.2c-0.7-0.3-1.6-0.2-2,0.5
					c-0.4,0.7-0.2,1.7,0.5,2c0.1,0.1,0.2,0.1,0.3,0.1c0,0,0.3,0.2,0.1,0.1c-0.2-0.1,0,0.1,0.1,0.1c0.1,0.1,0.1,0.1,0.2,0.2
					c0.1,0.2,0-0.1,0-0.1c0,0,0.1,0.2,0.2,0.3c0,0.1,0.1,0.1,0.1,0.2c0.1,0.1,0.1,0.1,0-0.1c0,0.1,0,0.1,0.1,0.2
					c0.1,0.2,0.1,0.3,0.1,0.5c0.1,0.4,0-0.3,0,0c0,0.1,0,0.1,0,0.2c0,0.2,0,0.4,0,0.5c0,0.4,0.1-0.3,0,0c0,0.1,0,0.2-0.1,0.3
					c0,0.1-0.1,0.2-0.1,0.3c-0.1,0.3,0.1-0.2,0,0c-0.1,0.1-0.2,0.4-0.3,0.5c-0.1,0.1-0.2,0.1,0-0.1c-0.1,0.1-0.2,0.2-0.3,0.3
					c-0.1,0.1-0.1,0.1-0.2,0.2c-0.1,0.1-0.1,0.1,0,0c-0.1,0.1-0.1,0.1-0.2,0.1c-0.2,0.1-0.4,0.2-0.5,0.3c0,0-0.4,0.2-0.1,0.1
					c-0.1,0-0.2,0.1-0.2,0.1c-0.2,0.1-0.4,0.1-0.6,0.2c-0.1,0-0.2,0.1-0.4,0.1c0.4-0.1,0,0-0.1,0c-0.2,0-0.5,0-0.7,0
					c-0.1,0-0.2,0-0.3,0c0,0-0.5-0.1-0.1,0c-0.5-0.1-0.9-0.2-1.4-0.4c-0.4-0.1,0.1,0.1-0.1,0c-0.1-0.1-0.2-0.1-0.3-0.1
					c-0.2-0.1-0.4-0.2-0.6-0.4c0.3,0.2-0.1-0.1-0.1-0.1c-0.1-0.1-0.1-0.1-0.2-0.2c-0.3-0.3,0.1,0.2-0.1-0.1
					c-0.1-0.1-0.1-0.2-0.2-0.3c-0.2-0.3,0,0.3,0-0.1c0-0.1,0-0.2-0.1-0.3c0-0.1,0-0.4,0,0c0-0.1,0-0.2,0-0.4c0-0.1,0-0.1,0-0.2
					c0-0.4-0.1,0.3,0-0.1c0.1-0.2,0.1-0.4,0.2-0.7c-0.1,0.3,0,0.1,0,0c0-0.1,0.1-0.2,0.2-0.3c0.1-0.1,0.1-0.2,0.2-0.3
					c0-0.1,0.2-0.2,0,0c0.1-0.2,0.3-0.3,0.4-0.4c0.1-0.1,0.2-0.2,0.3-0.2c-0.3,0.2,0,0,0.1-0.1c0.1-0.1,0.2-0.1,0.4-0.2
					c0,0,0.4-0.2,0.2-0.1c0.3-0.1,0.5-0.2,0.8-0.3c0.1,0,0.3-0.1,0.4-0.1c-0.3,0.1,0.1,0,0.2,0c0.3,0,0.6,0,0.9,0c0.1,0,0.3,0,0.5,0
					c0.1,0,0.2,0,0.3,0c0.2,0,0.2,0,0.1,0c-0.2,0,0.3,0.1,0.2,0c0.2,0,0.3,0.1,0.5,0.1c0.1,0,0.2,0.1,0.4,0.1c0.1,0,0.2,0.1,0.3,0.1
					c-0.1-0.1-0.2-0.1-0.1,0c0,0,0,0,0.1,0c0.1,0.1,0.1,0.1,0,0c0.1,0.1,0.1,0.1,0,0c-0.1-0.3-0.1-0.6,0-0.9
					c-0.3,0.7-0.2,1.6,0.5,2.1C-266.6,130.8-265.6,130.6-265.2,129.9L-265.2,129.9z"/>
			</g>
		</g>
		<g>
			<g>
				<path class="st2" d="M-224.8,184.4c0.4-0.9-0.1-1.9-0.7-2.6c-0.6-0.6-1.4-0.8-2.2-1c-1.5-0.4-3.2-0.4-4.7,0.1
					c-1.4,0.5-2.6,1.5-3.4,2.8c-0.7,1.2-1.1,2.6-1,4c0.1,1.6,0.8,3.1,2,4c1.2,0.9,2.6,1.5,4.1,1.6c2.9,0.2,5.6-1.4,6.6-4.1
					c1-2.5,0.4-6.2-2.1-7.6c-0.7-0.4-1.7-0.2-2.1,0.5c-0.4,0.7-0.2,1.6,0.5,2.1c0.1,0.1,0.2,0.1,0.2,0.1c0.3,0.2-0.2-0.2,0,0
					c0.1,0.1,0.1,0.1,0.2,0.2c0,0,0,0.1,0.1,0.1c0.1,0.1,0.1,0.1-0.1-0.1c0.1,0,0.2,0.4,0.3,0.4c0,0.1,0.2,0.4,0,0
					c0.1,0.1,0.1,0.3,0.1,0.4c0.1,0.2,0.1,0.4,0.1,0.6c0,0.1,0,0.4,0,0c0,0.1,0,0.2,0,0.3c0,0.2,0,0.4,0,0.7c0,0.1,0,0.2,0,0.3
					c0-0.2,0-0.1,0,0.1c0,0.2-0.1,0.4-0.2,0.6c0,0.1-0.1,0.2-0.1,0.3c0.1-0.4,0,0,0,0c-0.1,0.2-0.2,0.3-0.3,0.5
					c-0.2,0.3,0.2-0.2-0.1,0.1c-0.1,0.1-0.2,0.3-0.4,0.4c-0.1,0.1-0.2,0.2-0.3,0.2c0.1,0,0.2-0.2,0,0c-0.2,0.1-0.4,0.2-0.6,0.4
					c-0.3,0.2,0.3-0.1-0.1,0c-0.1,0-0.2,0.1-0.4,0.1c-0.2,0.1-0.5,0.1-0.7,0.2c0.4-0.1,0,0-0.1,0c-0.1,0-0.2,0-0.4,0
					c-0.2,0-0.4,0-0.6,0c0.4,0,0,0-0.1,0c-0.1,0-0.2-0.1-0.4-0.1s-0.2-0.1-0.4-0.1c-0.1,0-0.6-0.2-0.2-0.1c-0.2-0.1-0.4-0.2-0.6-0.3
					c-0.1-0.1-0.2-0.1-0.3-0.2c-0.4-0.2,0.2,0.2-0.1-0.1c-0.1-0.1-0.2-0.2-0.3-0.3c0,0-0.3-0.4-0.1-0.1c-0.1-0.1-0.1-0.2-0.2-0.2
					c0-0.1-0.3-0.6-0.1-0.2c-0.1-0.2-0.1-0.5-0.2-0.7c-0.1-0.4,0,0.3,0-0.1c0-0.1,0-0.2,0-0.2c0-0.2,0-0.5,0-0.8c0,0.4,0,0,0-0.1
					c0-0.2,0.1-0.3,0.1-0.5c0-0.1,0.1-0.2,0.1-0.2c0-0.1,0.2-0.4,0-0.1c0.1-0.2,0.2-0.4,0.4-0.7c0.1-0.1,0.1-0.2,0.2-0.3
					c0.2-0.2,0,0,0,0c0.2-0.2,0.4-0.4,0.6-0.6c0.3-0.3-0.3,0.2,0.1-0.1c0.2-0.1,0.3-0.2,0.5-0.3c0.1,0,0.2-0.1,0.3-0.1
					c-0.2,0.1,0.3-0.1,0.3-0.1c0.1,0,0.3-0.1,0.4-0.1c0.1,0,0.2,0,0.3-0.1c-0.2,0-0.1,0,0,0c0.3,0,0.6,0,0.9,0c0.1,0,0.3,0,0.4,0
					c0.2,0,0.2,0,0,0c0.1,0,0.2,0,0.3,0.1c0.3,0.1,0.6,0.1,0.9,0.2c0.1,0,0.3,0.1,0.4,0.1c-0.3-0.1,0.1,0.1,0.2,0.1
					c0,0-0.1-0.1-0.1-0.1c0.1,0.1,0.1,0.1,0,0c-0.1-0.1-0.1-0.2-0.1-0.3c0-0.2,0-0.2,0-0.1c-0.3,0.7,0.3,1.7,1.1,1.9
					C-225.8,185.6-225.1,185.1-224.8,184.4L-224.8,184.4z"/>
			</g>
		</g>
		<g>
			<g>
				<path class="st2" d="M-205.2,256.4c0.3-0.8-0.1-1.8-0.7-2.4c-0.6-0.5-1.2-0.8-1.9-0.9c-1.3-0.3-2.8-0.4-4.1,0.1
					c-1.3,0.5-2.3,1.3-3,2.4c-0.6,1-1,2.3-0.9,3.5c0.1,1.4,0.7,2.7,1.8,3.5c1.1,0.8,2.3,1.3,3.6,1.4c2.5,0.2,4.9-1.3,5.8-3.6
					c0.9-2.2,0.3-5.4-1.9-6.6c-0.7-0.4-1.7-0.2-2.1,0.5c-0.4,0.7-0.2,1.6,0.5,2c0.1,0,0.1,0.1,0.2,0.1c0.2,0.1-0.2-0.2-0.1,0
					c0.1,0.1,0.1,0.1,0.2,0.2c0,0,0,0,0.1,0.1c0.1,0.1,0.1,0.1-0.1-0.1c0,0.1,0.2,0.3,0.2,0.4c0.1,0.2,0,0.3,0,0
					c0,0.1,0.1,0.2,0.1,0.3c0.1,0.2,0.1,0.3,0.1,0.5c0,0.2-0.1,0.2,0-0.1c0,0.1,0,0.2,0,0.3c0,0.2,0,0.4,0,0.6c0,0.1-0.1,0.2,0,0.3
					c-0.1-0.1,0.1-0.3,0,0c0,0.2-0.1,0.4-0.1,0.5c0,0.1-0.1,0.2-0.1,0.3c0-0.1,0.1-0.1,0.1-0.2c0,0.1-0.1,0.1-0.1,0.2
					c-0.1,0.1-0.1,0.3-0.2,0.4c-0.1,0.3,0.2-0.2,0,0c-0.1,0.1-0.2,0.2-0.3,0.3c-0.1,0-0.2,0.2-0.2,0.2c0,0,0.3-0.2,0.1,0
					c-0.2,0.1-0.4,0.2-0.5,0.3c-0.3,0.2,0.3-0.1,0,0c-0.1,0-0.2,0.1-0.3,0.1c-0.1,0-0.6,0.2-0.6,0.1c0.1,0,0.1,0,0.2,0
					c-0.1,0-0.1,0-0.2,0c-0.1,0-0.2,0-0.3,0c-0.1,0-0.5,0-0.5,0c0.1,0,0.1,0,0.2,0c-0.1,0-0.1,0-0.2,0c-0.1,0-0.2,0-0.3-0.1
					s-0.2,0-0.3-0.1c-0.1,0-0.5-0.2-0.1,0c-0.2-0.1-0.3-0.2-0.5-0.2c-0.1-0.1-0.2-0.1-0.3-0.2c-0.3-0.2,0.2,0.2-0.1,0
					c-0.1-0.1-0.2-0.2-0.2-0.2c-0.1,0-0.3-0.4-0.1-0.1c0-0.1-0.1-0.1-0.1-0.2s-0.1-0.1-0.1-0.2c-0.1-0.1-0.1-0.1,0,0.1
					c-0.1-0.1-0.1-0.5-0.2-0.6c-0.1-0.3,0,0.3,0,0c0-0.1,0-0.1,0-0.2c0-0.1-0.1-0.5,0-0.6c0,0.1,0,0.1,0,0.2c0-0.1,0-0.1,0-0.2
					c0-0.1,0.1-0.3,0.1-0.4c0-0.1,0-0.1,0.1-0.2c0,0,0-0.1,0-0.1c0.1-0.1,0.1-0.1,0,0.1c0-0.1,0.2-0.4,0.3-0.5
					c0.1-0.1,0.1-0.2,0.2-0.3c0.2-0.2-0.1,0.1-0.1,0.1c0-0.1,0.4-0.4,0.5-0.5c0.2-0.2-0.3,0.2,0,0c0.1-0.1,0.3-0.2,0.4-0.2
					c0.1,0,0.1-0.1,0.2-0.1c-0.3,0.1,0.1,0,0.2,0c0.1,0,0.2-0.1,0.4-0.1c0.1,0,0.2,0,0.2,0c-0.2,0-0.2,0,0,0c0.2,0,0.5,0,0.7,0
					c0.1,0,0.2,0,0.4,0c0.2,0,0.2,0,0,0c0.1,0,0.2,0,0.2,0c0.2,0,0.5,0.1,0.7,0.2c0.1,0,0.3,0.1,0.4,0.1c-0.2-0.1-0.2-0.1-0.1,0
					c0.1,0,0.1,0.1,0.2,0.1c-0.3-0.4,0.1,0.3-0.2-0.2c-0.1-0.1-0.1-0.3-0.1-0.4c0.1-0.2,0-0.3,0-0.1c-0.3,0.7,0.3,1.7,1.1,1.8
					C-206.1,257.7-205.5,257.2-205.2,256.4L-205.2,256.4z"/>
			</g>
		</g>
		<g>
			<g>
				<path class="st2" d="M-139,147.7c0.3-0.8-0.1-1.8-0.7-2.4c-0.6-0.5-1.2-0.8-1.9-0.9c-1.3-0.3-2.8-0.4-4.1,0.1
					c-1.3,0.5-2.3,1.3-3,2.4c-0.6,1-1,2.3-0.9,3.5c0.1,1.4,0.7,2.7,1.8,3.5c1.1,0.8,2.3,1.3,3.6,1.4c2.5,0.2,4.9-1.3,5.8-3.6
					c0.9-2.2,0.3-5.4-1.9-6.6c-0.7-0.4-1.7-0.2-2.1,0.5c-0.4,0.7-0.2,1.6,0.5,2.1c0.1,0,0.1,0.1,0.2,0.1c0.2,0.1-0.2-0.2-0.1,0
					c0.1,0.1,0.1,0.1,0.2,0.2c0,0,0,0,0.1,0.1c0.1,0.1,0.1,0.1-0.1-0.1c0,0.1,0.2,0.3,0.2,0.4c0.1,0.2,0,0.3,0,0
					c0,0.1,0.1,0.2,0.1,0.3c0.1,0.2,0.1,0.3,0.1,0.5c0,0.2-0.1,0.2,0-0.1c0,0.1,0,0.2,0,0.3c0,0.2,0,0.4,0,0.6c0,0.1-0.1,0.2,0,0.3
					c-0.1-0.1,0.1-0.3,0,0c0,0.2-0.1,0.4-0.1,0.5c0,0.1-0.1,0.2-0.1,0.3c0-0.1,0.1-0.1,0.1-0.2c0,0.1-0.1,0.1-0.1,0.2
					c-0.1,0.1-0.1,0.3-0.2,0.4c-0.1,0.3,0.2-0.2,0,0c-0.1,0.1-0.2,0.2-0.3,0.3c-0.1,0.1-0.2,0.2-0.2,0.2c0,0,0.3-0.2,0.1-0.1
					c-0.2,0.1-0.4,0.2-0.5,0.3c-0.3,0.2,0.3-0.1,0,0c-0.1,0-0.2,0.1-0.3,0.1c-0.1,0-0.6,0.2-0.6,0.1c0.1,0,0.1,0,0.2,0
					c-0.1,0-0.1,0-0.2,0c-0.1,0-0.2,0-0.3,0c-0.1,0-0.5,0-0.5,0c0.1,0,0.1,0,0.2,0c-0.1,0-0.1,0-0.2,0c-0.1,0-0.2,0-0.3-0.1
					c-0.1,0-0.2-0.1-0.3-0.1c-0.1,0-0.5-0.2-0.1,0c-0.2-0.1-0.3-0.2-0.5-0.2c-0.1-0.1-0.2-0.1-0.3-0.2c-0.3-0.2,0.2,0.2-0.1,0
					c-0.1-0.1-0.2-0.2-0.2-0.2c-0.1-0.1-0.3-0.4-0.1-0.1c0-0.1-0.1-0.1-0.1-0.2c0-0.1-0.1-0.1-0.1-0.2c-0.1-0.1-0.1-0.1,0,0.1
					c-0.1-0.1-0.1-0.5-0.2-0.6c-0.1-0.3,0,0.3,0,0c0-0.1,0-0.1,0-0.2c0-0.1-0.1-0.5,0-0.6c0,0.1,0,0.1,0,0.2c0-0.1,0-0.1,0-0.2
					c0-0.1,0.1-0.3,0.1-0.4c0-0.1,0-0.1,0.1-0.2c0,0,0-0.1,0-0.1c0.1-0.1,0.1-0.1,0,0.1c0-0.1,0.2-0.4,0.3-0.6
					c0.1-0.1,0.1-0.2,0.2-0.3c0.2-0.2-0.1,0.1-0.1,0.1c0-0.1,0.4-0.4,0.5-0.5c0.2-0.2-0.3,0.2,0,0c0.1-0.1,0.3-0.2,0.4-0.2
					c0.1,0,0.1-0.1,0.2-0.1c-0.3,0.1,0.1,0,0.2-0.1c0.1,0,0.2-0.1,0.4-0.1c0.1,0,0.2,0,0.2,0c-0.2,0-0.2,0,0,0c0.2,0,0.5,0,0.7,0
					c0.1,0,0.2,0,0.4,0c0.2,0,0.2,0,0,0c0.1,0,0.2,0,0.2,0c0.2,0,0.5,0.1,0.7,0.2c0.1,0,0.3,0.1,0.4,0.1c-0.2-0.1-0.2-0.1-0.1,0
					c0.1,0,0.1,0.1,0.2,0.1c-0.3-0.4,0.1,0.3-0.2-0.2c-0.1-0.1-0.1-0.3-0.1-0.4c0.1-0.2,0-0.3,0-0.1c-0.3,0.7,0.3,1.7,1.1,1.9
					C-140,149-139.3,148.5-139,147.7L-139,147.7z"/>
			</g>
		</g>
		<g>
			<g>
				<path class="st2" d="M-174.9,179.4c0.4-0.9-0.1-1.9-0.7-2.6c-0.6-0.6-1.4-0.8-2.2-1c-1.5-0.4-3.2-0.4-4.7,0.1
					c-1.4,0.5-2.6,1.5-3.4,2.8c-0.7,1.2-1.1,2.6-1,4c0.1,1.6,0.8,3.1,2,4c1.2,0.9,2.6,1.5,4.1,1.6c2.9,0.2,5.6-1.4,6.6-4.1
					c1-2.5,0.4-6.2-2.1-7.6c-0.7-0.4-1.7-0.2-2.1,0.5c-0.4,0.7-0.2,1.6,0.5,2.1c0.1,0.1,0.2,0.1,0.2,0.1c0.3,0.2-0.2-0.2,0,0
					c0.1,0.1,0.1,0.1,0.2,0.2c0,0,0,0.1,0.1,0.1c0.1,0.1,0.1,0.1-0.1-0.1c0.1,0,0.2,0.4,0.3,0.4c0,0.1,0.2,0.4,0,0
					c0.1,0.1,0.1,0.3,0.1,0.4c0.1,0.2,0.1,0.4,0.1,0.6c0,0.1,0,0.4,0,0c0,0.1,0,0.2,0,0.3c0,0.2,0,0.4,0,0.7c0,0.1,0,0.2,0,0.3
					c0-0.2,0-0.1,0,0.1c0,0.2-0.1,0.4-0.2,0.6c0,0.1-0.1,0.2-0.1,0.3c0.1-0.4,0,0,0,0c-0.1,0.2-0.2,0.3-0.3,0.5
					c-0.2,0.3,0.2-0.2-0.1,0.1c-0.1,0.1-0.2,0.3-0.4,0.4c-0.1,0.1-0.2,0.2-0.3,0.2c0.1,0,0.2-0.2,0,0c-0.2,0.1-0.4,0.2-0.6,0.4
					c-0.3,0.2,0.3-0.1-0.1,0c-0.1,0-0.2,0.1-0.4,0.1c-0.2,0.1-0.5,0.1-0.7,0.2c0.4-0.1,0,0-0.1,0c-0.1,0-0.2,0-0.4,0
					c-0.2,0-0.4,0-0.6,0c0.4,0,0,0-0.1,0c-0.1,0-0.2-0.1-0.4-0.1s-0.2-0.1-0.4-0.1c-0.1,0-0.6-0.2-0.2-0.1c-0.2-0.1-0.4-0.2-0.6-0.3
					c-0.1-0.1-0.2-0.1-0.3-0.2c-0.4-0.2,0.2,0.2-0.1-0.1c-0.1-0.1-0.2-0.2-0.3-0.3c0,0-0.3-0.4-0.1-0.1c-0.1-0.1-0.1-0.2-0.2-0.2
					c0-0.1-0.3-0.6-0.1-0.2c-0.1-0.2-0.1-0.5-0.2-0.7c-0.1-0.4,0,0.3,0-0.1c0-0.1,0-0.2,0-0.2c0-0.2,0-0.5,0-0.8c0,0.4,0,0,0-0.1
					c0-0.2,0.1-0.3,0.1-0.5c0-0.1,0.1-0.2,0.1-0.2c0-0.1,0.2-0.4,0-0.1c0.1-0.2,0.2-0.4,0.4-0.7c0.1-0.1,0.1-0.2,0.2-0.3
					c0.2-0.2,0,0,0,0c0.2-0.2,0.4-0.4,0.6-0.6c0.3-0.3-0.3,0.2,0.1-0.1c0.2-0.1,0.3-0.2,0.5-0.3c0.1,0,0.2-0.1,0.3-0.1
					c-0.2,0.1,0.3-0.1,0.3-0.1c0.1,0,0.3-0.1,0.4-0.1c0.1,0,0.2,0,0.3-0.1c-0.2,0-0.1,0,0,0c0.3,0,0.6,0,0.9,0c0.1,0,0.3,0,0.4,0
					c0.2,0,0.2,0,0,0c0.1,0,0.2,0,0.3,0.1c0.3,0.1,0.6,0.1,0.9,0.2c0.1,0,0.3,0.1,0.4,0.1c-0.3-0.1,0.1,0.1,0.2,0.1
					c0,0-0.1-0.1-0.1-0.1c0.1,0.1,0.1,0.1,0,0c-0.1-0.1-0.1-0.2-0.1-0.3c0-0.2,0-0.2,0-0.1c-0.3,0.7,0.3,1.7,1.1,1.9
					C-175.8,180.7-175.2,180.2-174.9,179.4L-174.9,179.4z"/>
			</g>
		</g>
		<g>
			<g>
				<path class="st2" d="M-143.4,234.9c0.4-0.9-0.1-1.9-0.7-2.6c-0.6-0.6-1.4-0.8-2.2-1c-1.5-0.4-3.2-0.4-4.7,0.1
					c-1.4,0.5-2.6,1.5-3.4,2.8c-0.7,1.2-1.1,2.6-1,4c0.1,1.6,0.8,3.1,2,4c1.2,0.9,2.6,1.5,4.1,1.6c2.9,0.2,5.6-1.4,6.6-4.1
					c1-2.5,0.4-6.2-2.1-7.6c-0.7-0.4-1.7-0.2-2.1,0.5c-0.4,0.7-0.2,1.6,0.5,2.1c0.1,0.1,0.2,0.1,0.2,0.1c0.3,0.2-0.2-0.2,0,0
					c0.1,0.1,0.1,0.1,0.2,0.2c0,0,0,0.1,0.1,0.1c0.1,0.1,0.1,0.1-0.1-0.1c0.1,0,0.2,0.4,0.3,0.4c0,0.1,0.2,0.4,0,0
					c0.1,0.1,0.1,0.3,0.1,0.4c0.1,0.2,0.1,0.4,0.1,0.6c0,0.1,0,0.4,0,0c0,0.1,0,0.2,0,0.3c0,0.2,0,0.4,0,0.7c0,0.1,0,0.2,0,0.3
					c0-0.2,0-0.1,0,0.1c0,0.2-0.1,0.4-0.2,0.6c0,0.1-0.1,0.2-0.1,0.3c0.1-0.4,0,0,0,0c-0.1,0.2-0.2,0.3-0.3,0.5
					c-0.2,0.3,0.2-0.2-0.1,0.1c-0.1,0.1-0.2,0.3-0.4,0.4c-0.1,0.1-0.2,0.2-0.3,0.2c0.1,0,0.2-0.2,0,0c-0.2,0.1-0.4,0.2-0.6,0.4
					c-0.3,0.2,0.3-0.1-0.1,0c-0.1,0-0.2,0.1-0.4,0.1c-0.2,0.1-0.5,0.1-0.7,0.2c0.4-0.1,0,0-0.1,0c-0.1,0-0.2,0-0.4,0
					c-0.2,0-0.4,0-0.6,0c0.4,0,0,0-0.1,0c-0.1,0-0.2-0.1-0.4-0.1s-0.2-0.1-0.4-0.1c-0.1,0-0.6-0.2-0.2-0.1c-0.2-0.1-0.4-0.2-0.6-0.3
					c-0.1-0.1-0.2-0.1-0.3-0.2c-0.4-0.2,0.2,0.2-0.1-0.1c-0.1-0.1-0.2-0.2-0.3-0.3c0,0-0.3-0.4-0.1-0.1c-0.1-0.1-0.1-0.2-0.2-0.2
					c0-0.1-0.3-0.6-0.1-0.2c-0.1-0.2-0.1-0.5-0.2-0.7c-0.1-0.4,0,0.3,0-0.1c0-0.1,0-0.2,0-0.2c0-0.2,0-0.5,0-0.8c0,0.4,0,0,0-0.1
					c0-0.2,0.1-0.3,0.1-0.5c0-0.1,0.1-0.2,0.1-0.2c0-0.1,0.2-0.4,0-0.1c0.1-0.2,0.2-0.4,0.4-0.7c0.1-0.1,0.1-0.2,0.2-0.3
					c0.2-0.2,0,0,0,0c0.2-0.2,0.4-0.4,0.6-0.6c0.3-0.3-0.3,0.2,0.1-0.1c0.2-0.1,0.3-0.2,0.5-0.3c0.1,0,0.2-0.1,0.3-0.1
					c-0.2,0.1,0.3-0.1,0.3-0.1c0.1,0,0.3-0.1,0.4-0.1c0.1,0,0.2,0,0.3-0.1c-0.2,0-0.1,0,0,0c0.3,0,0.6,0,0.9,0c0.1,0,0.3,0,0.4,0
					c0.2,0,0.2,0,0,0c0.1,0,0.2,0,0.3,0.1c0.3,0.1,0.6,0.1,0.9,0.2c0.1,0,0.3,0.1,0.4,0.1c-0.3-0.1,0.1,0.1,0.2,0.1
					c0,0-0.1-0.1-0.1-0.1c0.1,0.1,0.1,0.1,0,0c-0.1-0.1-0.1-0.2-0.1-0.3c0-0.2,0-0.2,0-0.1c-0.3,0.7,0.3,1.7,1.1,1.9
					C-144.4,236.1-143.8,235.6-143.4,234.9L-143.4,234.9z"/>
			</g>
		</g>
		<g>
			<g>
				<path class="st2" d="M-93,194.2c0.4-0.9-0.1-1.9-0.7-2.6c-0.6-0.6-1.4-0.8-2.2-1c-1.5-0.4-3.2-0.4-4.7,0.1
					c-1.4,0.5-2.6,1.5-3.4,2.8c-0.7,1.2-1.1,2.6-1,4c0.1,1.6,0.8,3.1,2,4c1.2,0.9,2.6,1.5,4.1,1.6c2.9,0.2,5.6-1.4,6.6-4.1
					c1-2.5,0.4-6.2-2.1-7.6c-0.7-0.4-1.7-0.2-2.1,0.5c-0.4,0.7-0.2,1.6,0.5,2.1c0.1,0.1,0.2,0.1,0.2,0.1c0.3,0.2-0.2-0.2,0,0
					c0.1,0.1,0.1,0.1,0.2,0.2c0,0,0,0.1,0.1,0.1c0.1,0.1,0.1,0.1-0.1-0.1c0.1,0,0.2,0.4,0.3,0.4c0,0.1,0.2,0.4,0,0
					c0.1,0.1,0.1,0.3,0.1,0.4c0.1,0.2,0.1,0.4,0.1,0.6c0,0.1,0,0.4,0,0c0,0.1,0,0.2,0,0.3c0,0.2,0,0.4,0,0.7c0,0.1,0,0.2,0,0.3
					c0-0.2,0-0.1,0,0.1c0,0.2-0.1,0.4-0.2,0.6c0,0.1-0.1,0.2-0.1,0.3c0.1-0.4,0,0,0,0c-0.1,0.2-0.2,0.3-0.3,0.5
					c-0.2,0.3,0.2-0.2-0.1,0.1c-0.1,0.1-0.2,0.3-0.3,0.4c-0.1,0.1-0.2,0.2-0.3,0.2c0.1,0,0.2-0.2,0,0c-0.2,0.1-0.4,0.2-0.6,0.4
					c-0.3,0.2,0.3-0.1-0.1,0c-0.1,0-0.2,0.1-0.3,0.1c-0.2,0.1-0.5,0.1-0.7,0.2c0.4-0.1,0,0-0.1,0c-0.1,0-0.2,0-0.4,0
					c-0.2,0-0.4,0-0.6,0c0.4,0,0,0-0.1,0c-0.1,0-0.2-0.1-0.4-0.1s-0.2-0.1-0.4-0.1c-0.1,0-0.6-0.2-0.2-0.1c-0.2-0.1-0.4-0.2-0.6-0.3
					c-0.1-0.1-0.2-0.1-0.3-0.2c-0.3-0.2,0.2,0.2-0.1-0.1c-0.1-0.1-0.2-0.2-0.3-0.3c0,0-0.3-0.4-0.1-0.1c-0.1-0.1-0.1-0.2-0.2-0.2
					c0-0.1-0.3-0.6-0.1-0.2c-0.1-0.2-0.1-0.5-0.2-0.7c-0.1-0.4,0,0.3,0-0.1c0-0.1,0-0.2,0-0.2c0-0.2,0-0.5,0-0.8c0,0.4,0,0,0-0.1
					c0-0.2,0.1-0.3,0.1-0.5c0-0.1,0.1-0.2,0.1-0.2c0-0.1,0.2-0.4,0-0.1c0.1-0.2,0.2-0.4,0.3-0.7c0.1-0.1,0.1-0.2,0.2-0.3
					c0.2-0.2,0,0,0,0c0.2-0.2,0.4-0.4,0.6-0.6c0.3-0.3-0.3,0.2,0.1-0.1c0.2-0.1,0.3-0.2,0.5-0.3c0.1,0,0.2-0.1,0.3-0.1
					c-0.2,0.1,0.3-0.1,0.3-0.1c0.1,0,0.3-0.1,0.4-0.1c0.1,0,0.2,0,0.3-0.1c-0.2,0-0.2,0,0,0c0.3,0,0.6,0,0.9,0c0.2,0,0.3,0,0.4,0
					c0.2,0,0.2,0,0,0c0.1,0,0.2,0,0.3,0.1c0.3,0.1,0.6,0.1,0.9,0.2c0.1,0,0.3,0.1,0.4,0.1c-0.3-0.1,0.1,0.1,0.2,0.1
					c0,0-0.1-0.1-0.1-0.1c0.1,0.1,0.1,0.1,0,0c-0.1-0.1-0.1-0.2-0.1-0.3c0-0.2,0-0.2,0-0.1c-0.3,0.7,0.3,1.7,1.1,1.9
					C-93.9,195.4-93.3,195-93,194.2L-93,194.2z"/>
			</g>
		</g>
		<g>
			<g>
				<path class="st2" d="M-266.4,141.5c6.2,10.4,13.1,20.3,20.7,29.8c2.1,2.6,4.3,5.2,6.5,7.8c0.5,0.6,1.6,0.6,2.1,0
					c0.6-0.6,0.5-1.5,0-2.1c-7.8-8.9-15-18.4-21.4-28.3c-1.8-2.8-3.6-5.7-5.4-8.6C-264.8,138.3-267.4,139.8-266.4,141.5
					L-266.4,141.5z"/>
			</g>
		</g>
		<g>
			<g>
				<path class="st2" d="M-218.1,188.3c8.7,0.3,17.3-0.6,25.8-2.6c1.9-0.4,1.1-3.3-0.8-2.9c-8.2,1.9-16.6,2.8-25,2.5
					C-220.1,185.3-220.1,188.3-218.1,188.3L-218.1,188.3z"/>
			</g>
		</g>
		<g>
			<g>
				<path class="st2" d="M-176.5,192.4c4.7,9.9,9.9,19.6,15.7,28.9c1.7,2.6,3.4,5.3,5.1,7.9c0.4,0.7,1.3,1,2.1,0.5
					c0.7-0.4,1-1.4,0.5-2.1c-6.1-9.1-11.7-18.5-16.7-28.3c-1.4-2.8-2.8-5.6-4.1-8.4c-0.3-0.7-1.4-0.9-2.1-0.5
					C-176.7,190.7-176.9,191.6-176.5,192.4L-176.5,192.4z"/>
			</g>
		</g>
		<g>
			<g>
				<path class="st2" d="M-139.3,232.3c2.1-1.7,4.5-2.9,6.9-4.2c2.4-1.4,4.8-2.9,7.1-4.5c4.7-3.2,9.1-6.6,13.5-10.2
					c2.4-2,4.8-4,7.3-6c0.6-0.5,0.5-1.6,0-2.1c-0.6-0.6-1.5-0.5-2.1,0c-8.5,7.1-17.1,14.3-26.7,19.9c-2.7,1.6-5.5,3-8,5
					c-0.6,0.5-0.5,1.6,0,2.1C-140.8,232.9-139.9,232.8-139.3,232.3L-139.3,232.3z"/>
			</g>
		</g>
	</g>
</g>
<g>
	<g>
		<path class="st2" d="M153.1,306.1c0.4-1-0.1-2.2-0.8-3c-0.7-0.7-1.6-1-2.5-1.2c-1.8-0.4-3.7-0.5-5.4,0.1c-1.7,0.6-3,1.7-4,3.2
			c-0.8,1.4-1.3,3-1.2,4.6c0.1,1.8,0.9,3.5,2.3,4.6c1.4,1.1,3,1.7,4.8,1.9c3.3,0.3,6.4-1.6,7.6-4.7c1.1-2.9,0.4-7.1-2.5-8.7
			c-0.8-0.4-1.9-0.2-2.4,0.6c-0.4,0.8-0.2,1.9,0.6,2.4c0.1,0.1,0.2,0.1,0.3,0.2c0.3,0.2-0.2-0.3,0,0c0.1,0.1,0.2,0.2,0.2,0.2
			c0,0,0.1,0.1,0.1,0.1c0.1,0.1,0.1,0.1-0.1-0.1c0.1,0,0.3,0.4,0.3,0.5c0.1,0.1,0.2,0.5,0,0c0.1,0.1,0.1,0.3,0.2,0.5
			c0.1,0.2,0.1,0.5,0.2,0.7c0,0.1,0,0.4,0,0c0,0.1,0,0.2,0,0.4c0,0.3,0,0.5,0,0.8c0,0.1,0,0.3,0,0.4c0-0.3,0-0.1,0,0.1
			c-0.1,0.2-0.1,0.5-0.2,0.8c0,0.1-0.1,0.2-0.1,0.4c0.1-0.4,0,0,0,0c-0.1,0.2-0.2,0.4-0.3,0.5c-0.2,0.3,0.2-0.2-0.1,0.1
			c-0.1,0.1-0.3,0.3-0.4,0.4c-0.1,0.1-0.2,0.2-0.3,0.3c0.1,0,0.3-0.2,0,0c-0.2,0.2-0.5,0.3-0.7,0.4c-0.4,0.2,0.3-0.1-0.1,0
			c-0.1,0-0.3,0.1-0.4,0.1c-0.3,0.1-0.5,0.1-0.8,0.2c0.4-0.1,0,0-0.1,0c-0.1,0-0.3,0-0.4,0c-0.2,0-0.5,0-0.7,0c0.4,0,0,0-0.1,0
			c-0.1,0-0.3-0.1-0.4-0.1c-0.1,0-0.3-0.1-0.4-0.1c-0.1,0-0.6-0.2-0.3-0.1c-0.2-0.1-0.5-0.2-0.7-0.4c-0.1-0.1-0.3-0.2-0.4-0.2
			c-0.4-0.2,0.2,0.2-0.1-0.1c-0.1-0.1-0.2-0.2-0.4-0.3c0,0-0.3-0.4-0.1-0.1c-0.1-0.1-0.1-0.2-0.2-0.3c-0.1-0.1-0.3-0.7-0.2-0.3
			c-0.1-0.3-0.2-0.5-0.2-0.8c-0.1-0.4,0,0.4,0-0.1c0-0.1,0-0.2,0-0.3c0-0.3,0-0.6,0-0.9c-0.1,0.4,0,0,0-0.1c0-0.2,0.1-0.4,0.1-0.6
			c0-0.1,0.1-0.2,0.1-0.3c0-0.1,0.2-0.5,0.1-0.1c0.1-0.3,0.2-0.5,0.4-0.8c0.1-0.1,0.1-0.2,0.2-0.4c0.2-0.3,0,0,0,0
			c0.2-0.2,0.4-0.5,0.7-0.7c0.3-0.3-0.4,0.2,0.1-0.1c0.2-0.1,0.4-0.2,0.6-0.4c0.1,0,0.2-0.1,0.3-0.1c-0.3,0.1,0.3-0.1,0.4-0.1
			c0.2,0,0.3-0.1,0.5-0.1c0.1,0,0.2,0,0.3-0.1c-0.2,0-0.2,0,0,0c0.3,0,0.7,0,1,0c0.2,0,0.3,0,0.5,0c0.2,0,0.2,0,0.1,0
			c0.1,0,0.2,0,0.3,0.1c0.3,0.1,0.7,0.1,1,0.2c0.2,0,0.3,0.1,0.5,0.1c-0.4-0.1,0.1,0.1,0.2,0.1c-0.1,0-0.1-0.1-0.1-0.1
			c0.1,0.1,0.1,0.1,0,0c-0.1-0.1-0.1-0.2-0.1-0.4c0.1-0.2,0-0.3,0-0.1c-0.4,0.8,0.4,1.9,1.2,2.1C151.9,307.6,152.7,307,153.1,306.1
			L153.1,306.1z"/>
	</g>
</g>
<g>
	<g>
		<path class="st2" d="M205.9,264.8c0.4-1-0.1-2.2-0.8-3c-0.7-0.7-1.6-1-2.5-1.2c-1.8-0.4-3.7-0.5-5.4,0.1c-1.7,0.6-3,1.7-4,3.2
			c-0.8,1.4-1.3,3-1.2,4.6c0.1,1.8,0.9,3.5,2.3,4.6c1.4,1.1,3,1.7,4.8,1.9c3.3,0.3,6.4-1.6,7.6-4.7c1.1-2.9,0.4-7.1-2.5-8.7
			c-0.8-0.4-1.9-0.2-2.4,0.6c-0.4,0.8-0.2,1.9,0.6,2.4c0.1,0.1,0.2,0.1,0.3,0.2c0.3,0.2-0.2-0.3,0,0c0.1,0.1,0.2,0.2,0.2,0.2
			c0,0,0.1,0.1,0.1,0.1c0.1,0.1,0.1,0.1-0.1-0.1c0.1,0,0.3,0.4,0.3,0.5c0.1,0.1,0.2,0.5,0,0c0.1,0.1,0.1,0.3,0.2,0.5
			c0.1,0.2,0.1,0.5,0.2,0.7c0,0.1,0,0.4,0,0c0,0.1,0,0.2,0,0.4c0,0.3,0,0.5,0,0.8c0,0.1,0,0.3,0,0.4c0-0.3,0-0.1,0,0.1
			c-0.1,0.2-0.1,0.5-0.2,0.8c0,0.1-0.1,0.2-0.1,0.4c0.1-0.4,0,0,0,0c-0.1,0.2-0.2,0.4-0.3,0.5c-0.2,0.3,0.2-0.2-0.1,0.1
			c-0.1,0.1-0.3,0.3-0.4,0.4c-0.1,0.1-0.2,0.2-0.3,0.3c0.1,0,0.3-0.2,0,0c-0.2,0.2-0.5,0.3-0.7,0.4c-0.4,0.2,0.3-0.1-0.1,0
			c-0.1,0-0.3,0.1-0.4,0.1c-0.3,0.1-0.5,0.1-0.8,0.2c0.4-0.1,0,0-0.1,0c-0.1,0-0.3,0-0.4,0c-0.2,0-0.5,0-0.7,0c0.4,0,0,0-0.1,0
			c-0.1,0-0.3-0.1-0.4-0.1c-0.1,0-0.3-0.1-0.4-0.1c-0.1,0-0.6-0.2-0.3-0.1c-0.2-0.1-0.5-0.2-0.7-0.4c-0.1-0.1-0.3-0.2-0.4-0.2
			c-0.4-0.2,0.2,0.2-0.1-0.1c-0.1-0.1-0.2-0.2-0.4-0.3c0,0-0.3-0.4-0.1-0.1c-0.1-0.1-0.1-0.2-0.2-0.3c-0.1-0.1-0.3-0.7-0.2-0.3
			c-0.1-0.3-0.2-0.5-0.2-0.8c-0.1-0.4,0,0.4,0-0.1c0-0.1,0-0.2,0-0.3c0-0.3,0-0.6,0-0.9c-0.1,0.4,0,0,0-0.1c0-0.2,0.1-0.4,0.1-0.6
			c0-0.1,0.1-0.2,0.1-0.3c0-0.1,0.2-0.5,0.1-0.1c0.1-0.3,0.2-0.5,0.4-0.8c0.1-0.1,0.1-0.2,0.2-0.4c0.2-0.3,0,0,0,0
			c0.2-0.2,0.4-0.5,0.7-0.7c0.3-0.3-0.4,0.2,0.1-0.1c0.2-0.1,0.4-0.2,0.6-0.4c0.1,0,0.2-0.1,0.3-0.1c-0.3,0.1,0.3-0.1,0.4-0.1
			c0.2,0,0.3-0.1,0.5-0.1c0.1,0,0.2,0,0.3-0.1c-0.2,0-0.2,0,0,0c0.3,0,0.7,0,1,0c0.2,0,0.3,0,0.5,0c0.2,0,0.2,0,0.1,0
			c0.1,0,0.2,0,0.3,0.1c0.3,0.1,0.7,0.1,1,0.2c0.2,0,0.3,0.1,0.5,0.1c-0.4-0.1,0.1,0.1,0.2,0.1c-0.1,0-0.1-0.1-0.1-0.1
			c0.1,0.1,0.1,0.1,0,0c-0.1-0.1-0.1-0.2-0.1-0.4c0.1-0.2,0-0.3,0-0.1c-0.4,0.8,0.4,1.9,1.2,2.1
			C204.8,266.2,205.6,265.7,205.9,264.8L205.9,264.8z"/>
	</g>
</g>
<g>
	<g>
		<path class="st2" d="M253.8,272.2c0.4-1-0.1-2.2-0.8-3c-0.7-0.7-1.6-1-2.5-1.2c-1.8-0.4-3.7-0.5-5.4,0.1c-1.7,0.6-3,1.7-4,3.2
			c-0.8,1.4-1.3,3-1.2,4.6c0.1,1.8,0.9,3.5,2.3,4.6c1.4,1.1,3,1.7,4.8,1.9c3.3,0.3,6.4-1.6,7.6-4.7c1.1-2.9,0.4-7.1-2.5-8.7
			c-0.8-0.4-1.9-0.2-2.4,0.6c-0.4,0.8-0.2,1.9,0.6,2.4c0.1,0.1,0.2,0.1,0.3,0.2c0.3,0.2-0.2-0.3,0,0c0.1,0.1,0.2,0.2,0.2,0.2
			c0,0,0.1,0.1,0.1,0.1c0.1,0.1,0.1,0.1-0.1-0.1c0.1,0,0.3,0.4,0.3,0.5c0.1,0.1,0.2,0.5,0,0c0.1,0.1,0.1,0.3,0.2,0.5
			c0.1,0.2,0.1,0.5,0.2,0.7c0,0.1,0,0.4,0,0c0,0.1,0,0.2,0,0.4c0,0.3,0,0.5,0,0.8c0,0.1,0,0.3,0,0.4c0-0.3,0-0.1,0,0.1
			c-0.1,0.2-0.1,0.5-0.2,0.8c0,0.1-0.1,0.2-0.1,0.4c0.1-0.4,0,0,0,0c-0.1,0.2-0.2,0.4-0.3,0.5c-0.2,0.3,0.2-0.2-0.1,0.1
			c-0.1,0.1-0.3,0.3-0.4,0.4c-0.1,0.1-0.2,0.2-0.3,0.3c0.1,0,0.3-0.2,0,0c-0.2,0.2-0.5,0.3-0.7,0.4c-0.4,0.2,0.3-0.1-0.1,0
			c-0.1,0-0.3,0.1-0.4,0.1c-0.3,0.1-0.5,0.1-0.8,0.2c0.4-0.1,0,0-0.1,0c-0.1,0-0.3,0-0.4,0c-0.2,0-0.5,0-0.7,0c0.4,0,0,0-0.1,0
			c-0.1,0-0.3-0.1-0.4-0.1s-0.3-0.1-0.4-0.1c-0.1,0-0.6-0.2-0.3-0.1c-0.2-0.1-0.5-0.2-0.7-0.4c-0.1-0.1-0.3-0.2-0.4-0.2
			c-0.4-0.2,0.2,0.2-0.1-0.1c-0.1-0.1-0.2-0.2-0.4-0.3c0,0-0.3-0.4-0.1-0.1c-0.1-0.1-0.1-0.2-0.2-0.3c-0.1-0.1-0.3-0.7-0.2-0.3
			c-0.1-0.3-0.2-0.5-0.2-0.8c-0.1-0.4,0,0.4,0-0.1c0-0.1,0-0.2,0-0.3c0-0.3,0-0.6,0-0.9c-0.1,0.4,0,0,0-0.1c0-0.2,0.1-0.4,0.1-0.6
			c0-0.1,0.1-0.2,0.1-0.3c0-0.1,0.2-0.5,0.1-0.1c0.1-0.3,0.2-0.5,0.4-0.8c0.1-0.1,0.1-0.2,0.2-0.4c0.2-0.3,0,0,0,0
			c0.2-0.2,0.4-0.5,0.7-0.7c0.3-0.3-0.4,0.2,0.1-0.1c0.2-0.1,0.4-0.2,0.6-0.4c0.1,0,0.2-0.1,0.3-0.1c-0.3,0.1,0.3-0.1,0.4-0.1
			c0.2,0,0.3-0.1,0.5-0.1c0.1,0,0.2,0,0.3-0.1c-0.2,0-0.2,0,0,0c0.3,0,0.7,0,1,0c0.2,0,0.3,0,0.5,0c0.2,0,0.2,0,0.1,0
			c0.1,0,0.2,0,0.3,0.1c0.3,0.1,0.7,0.1,1,0.2c0.2,0,0.3,0.1,0.5,0.1c-0.4-0.1,0.1,0.1,0.2,0.1c-0.1,0-0.1-0.1-0.1-0.1
			c0.1,0.1,0.1,0.1,0,0c-0.1-0.1-0.1-0.2-0.1-0.4c0.1-0.2,0-0.3,0-0.1c-0.4,0.8,0.4,1.9,1.2,2.1
			C252.7,273.6,253.4,273.1,253.8,272.2L253.8,272.2z"/>
	</g>
</g>
<g>
	<g>
		<path class="st2" d="M310.8,274.3c0.4-1-0.1-2.2-0.8-3c-0.7-0.7-1.6-1-2.5-1.2c-1.8-0.4-3.7-0.5-5.5,0.1c-1.7,0.6-3,1.7-4,3.2
			c-0.8,1.4-1.3,3-1.2,4.6c0.1,1.8,0.9,3.5,2.3,4.6c1.4,1.1,3,1.7,4.8,1.9c3.3,0.3,6.4-1.6,7.6-4.7c1.1-2.9,0.4-7.1-2.5-8.7
			c-0.8-0.4-1.9-0.2-2.4,0.6c-0.4,0.8-0.2,1.9,0.6,2.4c0.1,0.1,0.2,0.1,0.3,0.2c0.3,0.2-0.2-0.3,0,0c0.1,0.1,0.2,0.2,0.2,0.2
			c0,0,0,0.1,0.1,0.1c0.1,0.1,0.1,0.1-0.1-0.1c0.1,0,0.3,0.4,0.3,0.5c0,0.1,0.2,0.5,0,0c0.1,0.1,0.1,0.3,0.2,0.5
			c0.1,0.2,0.1,0.5,0.2,0.7c0,0.1,0,0.4,0,0c0,0.1,0,0.2,0,0.4c0,0.3,0,0.5,0,0.8c0,0.1,0,0.3,0,0.4c0-0.3,0-0.1,0,0.1
			c0,0.2-0.1,0.5-0.2,0.8c0,0.1-0.1,0.2-0.1,0.4c0.1-0.4,0,0,0,0c-0.1,0.2-0.2,0.4-0.3,0.5c-0.2,0.3,0.2-0.2-0.1,0.1
			c-0.1,0.1-0.3,0.3-0.4,0.4c-0.1,0.1-0.2,0.2-0.3,0.3c0.1,0,0.3-0.2,0,0c-0.2,0.2-0.5,0.3-0.7,0.4c-0.4,0.2,0.3-0.1-0.1,0
			c-0.1,0-0.3,0.1-0.4,0.1c-0.3,0.1-0.5,0.1-0.8,0.2c0.4-0.1,0,0-0.1,0c-0.1,0-0.3,0-0.4,0c-0.2,0-0.5,0-0.7,0c0.4,0,0,0-0.1,0
			c-0.1,0-0.3-0.1-0.4-0.1c-0.1,0-0.3-0.1-0.4-0.1c-0.1,0-0.6-0.2-0.3-0.1c-0.2-0.1-0.5-0.2-0.7-0.4c-0.1-0.1-0.3-0.2-0.4-0.2
			c-0.4-0.2,0.2,0.2-0.1-0.1c-0.1-0.1-0.2-0.2-0.4-0.3c0,0-0.3-0.4-0.1-0.1c-0.1-0.1-0.1-0.2-0.2-0.3c0-0.1-0.3-0.7-0.2-0.3
			c-0.1-0.3-0.2-0.5-0.2-0.8c-0.1-0.4,0,0.4,0-0.1c0-0.1,0-0.2,0-0.3c0-0.3,0-0.6,0-0.9c0,0.4,0,0,0-0.1c0-0.2,0.1-0.4,0.1-0.6
			c0-0.1,0.1-0.2,0.1-0.3c0-0.1,0.2-0.5,0-0.1c0.1-0.3,0.2-0.5,0.4-0.8c0.1-0.1,0.1-0.2,0.2-0.4c0.2-0.3,0,0,0,0
			c0.2-0.2,0.4-0.5,0.7-0.7c0.3-0.3-0.4,0.2,0.1-0.1c0.2-0.1,0.4-0.2,0.6-0.4c0.1,0,0.2-0.1,0.3-0.1c-0.3,0.1,0.3-0.1,0.4-0.1
			c0.2,0,0.3-0.1,0.5-0.1c0.1,0,0.2,0,0.3-0.1c-0.2,0-0.2,0,0,0c0.3,0,0.7,0,1,0c0.2,0,0.3,0,0.5,0c0.2,0,0.2,0,0,0
			c0.1,0,0.2,0,0.3,0.1c0.3,0.1,0.7,0.1,1,0.2c0.2,0,0.3,0.1,0.5,0.1c-0.4-0.1,0.1,0.1,0.2,0.1c0,0-0.1-0.1-0.1-0.1
			c0.1,0.1,0.1,0.1,0,0c-0.1-0.1-0.1-0.2-0.1-0.4c0-0.2,0-0.3,0-0.1c-0.4,0.8,0.4,1.9,1.2,2.1C309.7,275.7,310.4,275.2,310.8,274.3
			L310.8,274.3z"/>
	</g>
</g>
<g>
	<g>
		<path class="st2" d="M340.6,312.4c0.4-1-0.1-2.2-0.8-3c-0.7-0.7-1.6-1-2.5-1.2c-1.8-0.4-3.7-0.5-5.5,0.1c-1.7,0.6-3,1.7-4,3.2
			c-0.8,1.4-1.3,3-1.2,4.6c0.1,1.8,0.9,3.5,2.3,4.6c1.4,1.1,3,1.7,4.8,1.9c3.3,0.3,6.4-1.6,7.6-4.7c1.1-2.9,0.4-7.1-2.5-8.7
			c-0.8-0.4-1.9-0.2-2.4,0.6c-0.4,0.8-0.2,1.9,0.6,2.4c0.1,0.1,0.2,0.1,0.3,0.2c0.3,0.2-0.2-0.3,0,0c0.1,0.1,0.2,0.2,0.2,0.2
			c0,0,0,0.1,0.1,0.1c0.1,0.1,0.1,0.1-0.1-0.1c0.1,0,0.3,0.4,0.3,0.5c0,0.1,0.2,0.5,0,0c0.1,0.1,0.1,0.3,0.2,0.5
			c0.1,0.2,0.1,0.5,0.2,0.7c0,0.1,0,0.4,0,0c0,0.1,0,0.2,0,0.4c0,0.3,0,0.5,0,0.8c0,0.1,0,0.3,0,0.4c0-0.3,0-0.1,0,0.1
			c0,0.2-0.1,0.5-0.2,0.8c0,0.1-0.1,0.2-0.1,0.4c0.1-0.4,0,0,0,0c-0.1,0.2-0.2,0.4-0.3,0.5c-0.2,0.3,0.2-0.2-0.1,0.1
			c-0.1,0.1-0.3,0.3-0.4,0.4c-0.1,0.1-0.2,0.2-0.3,0.3c0.1,0,0.3-0.2,0,0c-0.2,0.2-0.5,0.3-0.7,0.4c-0.4,0.2,0.3-0.1-0.1,0
			c-0.1,0-0.3,0.1-0.4,0.1c-0.3,0.1-0.5,0.1-0.8,0.2c0.4-0.1,0,0-0.1,0c-0.1,0-0.3,0-0.4,0c-0.2,0-0.5,0-0.7,0c0.4,0,0,0-0.1,0
			c-0.1,0-0.3-0.1-0.4-0.1c-0.1,0-0.3-0.1-0.4-0.1c-0.1,0-0.6-0.2-0.3-0.1c-0.2-0.1-0.5-0.2-0.7-0.4c-0.1-0.1-0.3-0.2-0.4-0.2
			c-0.4-0.2,0.2,0.2-0.1-0.1c-0.1-0.1-0.2-0.2-0.4-0.3c0,0-0.3-0.4-0.1-0.1c-0.1-0.1-0.1-0.2-0.2-0.3c0-0.1-0.3-0.7-0.2-0.3
			c-0.1-0.3-0.2-0.5-0.2-0.8c-0.1-0.4,0,0.4,0-0.1c0-0.1,0-0.2,0-0.3c0-0.3,0-0.6,0-0.9c0,0.4,0,0,0-0.1c0-0.2,0.1-0.4,0.1-0.6
			c0-0.1,0.1-0.2,0.1-0.3c0-0.1,0.2-0.5,0-0.1c0.1-0.3,0.2-0.5,0.4-0.8c0.1-0.1,0.1-0.2,0.2-0.4c0.2-0.3,0,0,0,0
			c0.2-0.2,0.4-0.5,0.7-0.7c0.3-0.3-0.4,0.2,0.1-0.1c0.2-0.1,0.4-0.2,0.6-0.4c0.1,0,0.2-0.1,0.3-0.1c-0.3,0.1,0.3-0.1,0.4-0.1
			c0.2,0,0.3-0.1,0.5-0.1c0.1,0,0.2,0,0.3-0.1c-0.2,0-0.2,0,0,0c0.3,0,0.7,0,1,0c0.2,0,0.3,0,0.5,0c0.2,0,0.2,0,0,0
			c0.1,0,0.2,0,0.3,0.1c0.3,0.1,0.7,0.1,1,0.2c0.2,0,0.3,0.1,0.5,0.1c-0.4-0.1,0.1,0.1,0.2,0.1c0,0-0.1-0.1-0.1-0.1
			c0.1,0.1,0.1,0.1,0,0c-0.1-0.1-0.1-0.2-0.1-0.4c0-0.2,0-0.3,0-0.1c-0.4,0.8,0.4,1.9,1.2,2.1C339.5,313.9,340.2,313.3,340.6,312.4
			L340.6,312.4z"/>
	</g>
</g>
<g>
	<g>
		<path class="st2" d="M413.7,281.7c0.4-1-0.1-2.2-0.8-3c-0.7-0.7-1.6-1-2.5-1.2c-1.8-0.4-3.7-0.5-5.5,0.1c-1.7,0.6-3,1.7-4,3.2
			c-0.8,1.4-1.3,3-1.2,4.6c0.1,1.8,0.9,3.5,2.3,4.6c1.4,1.1,3,1.7,4.8,1.9c3.3,0.3,6.4-1.6,7.6-4.7c1.1-2.9,0.4-7.1-2.5-8.7
			c-0.8-0.4-1.9-0.2-2.4,0.6c-0.4,0.8-0.2,1.9,0.6,2.4c0.1,0.1,0.2,0.1,0.3,0.2c0.3,0.2-0.2-0.3,0,0c0.1,0.1,0.2,0.2,0.2,0.2
			c0,0,0,0.1,0.1,0.1c0.1,0.1,0.1,0.1-0.1-0.1c0.1,0,0.3,0.4,0.3,0.5c0,0.1,0.2,0.5,0,0c0.1,0.1,0.1,0.3,0.2,0.5
			c0.1,0.2,0.1,0.5,0.2,0.7c0,0.1,0,0.4,0,0c0,0.1,0,0.2,0,0.4c0,0.3,0,0.5,0,0.8c0,0.1,0,0.3,0,0.4c0-0.3,0-0.1,0,0.1
			c0,0.2-0.1,0.5-0.2,0.8c0,0.1-0.1,0.2-0.1,0.4c0.1-0.4,0,0,0,0c-0.1,0.2-0.2,0.4-0.3,0.5c-0.2,0.3,0.2-0.2-0.1,0.1
			c-0.1,0.1-0.3,0.3-0.4,0.4c-0.1,0.1-0.2,0.2-0.3,0.3c0.1,0,0.3-0.2,0,0c-0.2,0.2-0.5,0.3-0.7,0.4c-0.4,0.2,0.3-0.1-0.1,0
			c-0.1,0-0.3,0.1-0.4,0.1c-0.3,0.1-0.5,0.1-0.8,0.2c0.4-0.1,0,0-0.1,0c-0.1,0-0.3,0-0.4,0c-0.2,0-0.5,0-0.7,0c0.4,0,0,0-0.1,0
			c-0.1,0-0.3-0.1-0.4-0.1c-0.1,0-0.3-0.1-0.4-0.1c-0.1,0-0.6-0.2-0.3-0.1c-0.2-0.1-0.5-0.2-0.7-0.4c-0.1-0.1-0.3-0.2-0.4-0.2
			c-0.4-0.2,0.2,0.2-0.1-0.1c-0.1-0.1-0.2-0.2-0.4-0.3c0,0-0.3-0.4-0.1-0.1c-0.1-0.1-0.1-0.2-0.2-0.3c0-0.1-0.3-0.7-0.2-0.3
			c-0.1-0.3-0.2-0.5-0.2-0.8c-0.1-0.4,0,0.4,0-0.1c0-0.1,0-0.2,0-0.3c0-0.3,0-0.6,0-0.9c0,0.4,0,0,0-0.1c0-0.2,0.1-0.4,0.1-0.6
			c0-0.1,0.1-0.2,0.1-0.3c0-0.1,0.2-0.5,0-0.1c0.1-0.3,0.2-0.5,0.4-0.8c0.1-0.1,0.1-0.2,0.2-0.4c0.2-0.3,0,0,0,0
			c0.2-0.2,0.4-0.5,0.7-0.7c0.3-0.3-0.4,0.2,0.1-0.1c0.2-0.1,0.4-0.2,0.6-0.4c0.1,0,0.2-0.1,0.3-0.1c-0.3,0.1,0.3-0.1,0.4-0.1
			c0.2,0,0.3-0.1,0.5-0.1c0.1,0,0.2,0,0.3-0.1c-0.2,0-0.2,0,0,0c0.3,0,0.7,0,1,0c0.2,0,0.3,0,0.5,0c0.2,0,0.2,0,0,0
			c0.1,0,0.2,0,0.3,0.1c0.3,0.1,0.7,0.1,1,0.2c0.2,0,0.3,0.1,0.5,0.1c-0.4-0.1,0.1,0.1,0.2,0.1c0,0-0.1-0.1-0.1-0.1
			c0.1,0.1,0.1,0.1,0,0c-0.1-0.1-0.1-0.2-0.1-0.4c0-0.2,0-0.3,0-0.1c-0.4,0.8,0.4,1.9,1.2,2.1C412.5,283.1,413.3,282.6,413.7,281.7
			L413.7,281.7z"/>
	</g>
</g>
<g>
	<g>
		<path class="st2" d="M400.8,226.5c0.4-1-0.1-2.2-0.8-3c-0.7-0.7-1.6-1-2.5-1.2c-1.8-0.4-3.7-0.5-5.5,0.1c-1.7,0.6-3,1.7-4,3.2
			c-0.8,1.4-1.3,3-1.2,4.6c0.1,1.8,0.9,3.5,2.3,4.6c1.4,1.1,3,1.7,4.8,1.9c3.3,0.3,6.4-1.6,7.6-4.7c1.1-2.9,0.4-7.1-2.5-8.7
			c-0.8-0.4-1.9-0.2-2.4,0.6c-0.4,0.8-0.2,1.9,0.6,2.4c0.1,0.1,0.2,0.1,0.3,0.2c0.3,0.2-0.2-0.3,0,0c0.1,0.1,0.2,0.2,0.2,0.2
			c0,0,0,0.1,0.1,0.1c0.1,0.1,0.1,0.1-0.1-0.1c0.1,0,0.3,0.4,0.3,0.5c0,0.1,0.2,0.5,0,0c0.1,0.1,0.1,0.3,0.2,0.5
			c0.1,0.2,0.1,0.5,0.2,0.7c0,0.1,0,0.4,0,0c0,0.1,0,0.2,0,0.4c0,0.3,0,0.5,0,0.8c0,0.1,0,0.3,0,0.4c0-0.3,0-0.1,0,0.1
			c0,0.2-0.1,0.5-0.2,0.8c0,0.1-0.1,0.2-0.1,0.4c0.1-0.4,0,0,0,0c-0.1,0.2-0.2,0.4-0.3,0.5c-0.2,0.3,0.2-0.2-0.1,0.1
			c-0.1,0.1-0.3,0.3-0.4,0.4c-0.1,0.1-0.2,0.2-0.3,0.3c0.1,0,0.3-0.2,0,0c-0.2,0.2-0.5,0.3-0.7,0.4c-0.4,0.2,0.3-0.1-0.1,0
			c-0.1,0-0.3,0.1-0.4,0.1c-0.3,0.1-0.5,0.1-0.8,0.2c0.4-0.1,0,0-0.1,0c-0.1,0-0.3,0-0.4,0c-0.2,0-0.5,0-0.7,0c0.4,0,0,0-0.1,0
			c-0.1,0-0.3-0.1-0.4-0.1c-0.1,0-0.3-0.1-0.4-0.1c-0.1,0-0.6-0.2-0.3-0.1c-0.2-0.1-0.5-0.2-0.7-0.4c-0.1-0.1-0.3-0.2-0.4-0.2
			c-0.4-0.2,0.2,0.2-0.1-0.1c-0.1-0.1-0.2-0.2-0.4-0.3c0,0-0.3-0.4-0.1-0.1c-0.1-0.1-0.1-0.2-0.2-0.3c0-0.1-0.3-0.7-0.2-0.3
			c-0.1-0.3-0.2-0.5-0.2-0.8c-0.1-0.4,0,0.4,0-0.1c0-0.1,0-0.2,0-0.3c0-0.3,0-0.6,0-0.9c0,0.4,0,0,0-0.1c0-0.2,0.1-0.4,0.1-0.6
			c0-0.1,0.1-0.2,0.1-0.3c0-0.1,0.2-0.5,0-0.1c0.1-0.3,0.2-0.5,0.4-0.8c0.1-0.1,0.1-0.2,0.2-0.4c0.2-0.3,0,0,0,0
			c0.2-0.2,0.4-0.5,0.7-0.7c0.3-0.3-0.4,0.2,0.1-0.1c0.2-0.1,0.4-0.2,0.6-0.4c0.1,0,0.2-0.1,0.3-0.1c-0.3,0.1,0.3-0.1,0.4-0.1
			c0.2,0,0.3-0.1,0.5-0.1c0.1,0,0.2,0,0.3-0.1c-0.2,0-0.2,0,0,0c0.3,0,0.7,0,1,0c0.2,0,0.3,0,0.5,0c0.2,0,0.2,0,0,0
			c0.1,0,0.2,0,0.3,0.1c0.3,0.1,0.7,0.1,1,0.2c0.2,0,0.3,0.1,0.5,0.1c-0.4-0.1,0.1,0.1,0.2,0.1c0,0-0.1-0.1-0.1-0.1
			c0.1,0.1,0.1,0.1,0,0c-0.1-0.1-0.1-0.2-0.1-0.4c0-0.2,0-0.3,0-0.1c-0.4,0.8,0.4,1.9,1.2,2.1C399.7,227.9,400.4,227.4,400.8,226.5
			L400.8,226.5z"/>
	</g>
</g>
<g>
	<g>
		<path class="st3" d="M189,273.3c-8.7,6-17,12.6-24.9,19.9c-2.2,2-4.3,4.1-6.4,6.2c-0.5,0.5-0.4,1.5,0.1,1.9
			c0.6,0.5,1.3,0.4,1.8-0.1c7.4-7.4,15.3-14.2,23.6-20.5c2.4-1.8,4.8-3.5,7.2-5.2C191.7,274.7,190.3,272.4,189,273.3L189,273.3z"/>
	</g>
</g>
<g>
	<g>
		<path class="st4" d="M394.3,290.2c-12.8,4.1-25.2,9.1-37.1,14.9c-3.3,1.6-6.6,3.3-9.9,5c-0.8,0.4-0.9,1.5-0.4,2.2
			c0.6,0.8,1.6,0.9,2.4,0.5c11.5-6.1,23.4-11.4,35.7-15.9c3.5-1.3,7-2.5,10.6-3.6C397.5,292.5,396.4,289.5,394.3,290.2L394.3,290.2z
			"/>
	</g>
</g>
<g>
	<g>
		<path class="st2" d="M378.9,233.5c-17.7,7-34.8,15-51,24c-4.5,2.5-9,5.1-13.4,7.8c-1.1,0.6-1.1,2-0.2,2.8c0.9,0.9,2.4,0.9,3.5,0.3
			c15.5-9.3,31.7-17.7,48.7-25.1c4.8-2.1,9.7-4.1,14.7-6.1C383.9,236.1,381.7,232.4,378.9,233.5L378.9,233.5z"/>
	</g>
</g>
<g>
	<g>
		<path class="st5" d="M233.9,271.5c-5-1.6-10.2-2.9-15.6-3.8c-1.5-0.3-3-0.5-4.5-0.7c-0.4,0-0.8,0.3-0.9,0.6
			c-0.1,0.4,0.1,0.6,0.5,0.7c5.4,0.7,10.5,1.8,15.6,3.2c1.4,0.4,2.8,0.8,4.2,1.3C233.9,273,234.7,271.7,233.9,271.5L233.9,271.5z"/>
	</g>
</g>
<g>
	<g>
		<path class="st5" d="M290.9,276.2c-7.3-0.9-14.9-1.2-22.6-1c-2.1,0.1-4.3,0.2-6.5,0.3c-0.5,0-1.1,0.6-1.1,1.1
			c-0.1,0.6,0.3,0.9,0.8,0.8c7.6-0.5,15.1-0.5,22.4,0.1c2.1,0.2,4.1,0.4,6.2,0.6C291.3,278.3,292.1,276.4,290.9,276.2L290.9,276.2z"
			/>
	</g>
</g>
<g>
	<g>
		<path class="st6" d="M324.9,305.3c-2.8-4.5-6-8.8-9.6-12.9c-1-1.1-2-2.3-3.1-3.4c-0.2-0.3-0.8-0.3-1.1-0.1
			c-0.3,0.2-0.3,0.6-0.1,0.9c3.7,3.9,7,8.1,10,12.4c0.8,1.2,1.6,2.5,2.4,3.7C324,306.5,325.4,306,324.9,305.3L324.9,305.3z"/>
	</g>
</g>
<g>
	<g>
		<path class="st5" d="M407.3,271.9c-0.5-8-1.6-16.1-3.4-24.1c-0.5-2.2-1-4.5-1.6-6.7c-0.1-0.5-0.8-0.9-1.4-0.8
			c-0.6,0.1-0.8,0.6-0.7,1.1c2,7.8,3.5,15.7,4.3,23.6c0.2,2.2,0.4,4.5,0.6,6.7C405.2,273,407.4,273.2,407.3,271.9L407.3,271.9z"/>
	</g>
</g>
<g id="Layer_3">
</g>
</svg>
