<?xml version="1.0" encoding="utf-8"?>
<!-- Generator: Adobe Illustrator 24.3.0, SVG Export Plug-In . SVG Version: 6.00 Build 0)  -->
<svg version="1.1" xmlns="http://www.w3.org/2000/svg" xmlns:xlink="http://www.w3.org/1999/xlink" x="0px" y="0px"
	 viewBox="0 0 595.28 595.28" style="enable-background:new 0 0 595.28 595.28;" xml:space="preserve">
<style type="text/css">
	.st0{fill:#FCC00E;}
</style>
<g id="Layer_1">
</g>
<g id="Layer_2">
	<g>
		<g>
			<path class="st0" d="M218.63,232.49c0.45-0.95,0.31-1.96-0.49-2.68c-0.6-0.54-1.33-0.79-2.1-0.95c-1.5-0.32-3.05-0.4-4.55-0.05
				c-2.67,0.63-4.88,2.97-4.86,5.81c0.03,3.18,2.99,4.89,5.82,5.22c2.53,0.3,5.5-0.71,6.75-3.06c1.27-2.39,0.73-5.96-1.9-7.2
				c-0.71-0.33-1.65-0.22-2.05,0.54c-0.35,0.67-0.22,1.69,0.54,2.05c0.1,0.05,0.19,0.09,0.28,0.15c0.02,0.01,0.32,0.18,0.11,0.06
				c-0.2-0.12,0.05,0.05,0.09,0.08c0.08,0.07,0.14,0.15,0.21,0.22c0.15,0.16,0-0.05-0.05-0.06c0.04,0.01,0.14,0.22,0.17,0.26
				c0.03,0.06,0.06,0.12,0.1,0.18c0.07,0.15,0.06,0.12-0.03-0.07c0.03,0.07,0.05,0.13,0.07,0.2c0.06,0.17,0.09,0.34,0.13,0.51
				c0.08,0.35-0.01-0.34,0,0.03c0,0.07,0.01,0.14,0.01,0.21c0.01,0.18-0.01,0.36-0.02,0.54c-0.02,0.36,0.08-0.32-0.01,0.03
				c-0.03,0.1-0.05,0.21-0.07,0.32c-0.03,0.1-0.07,0.21-0.1,0.31c-0.1,0.32,0.13-0.17,0.01-0.01c-0.11,0.15-0.19,0.35-0.3,0.51
				c-0.06,0.09-0.17,0.14,0.04-0.05c-0.09,0.08-0.17,0.19-0.26,0.28c-0.06,0.06-0.13,0.11-0.18,0.17c-0.13,0.11-0.13,0.11,0.01,0
				c-0.07,0.05-0.13,0.1-0.2,0.14c-0.17,0.12-0.35,0.22-0.54,0.31c-0.05,0.03-0.43,0.17-0.1,0.05c-0.08,0.03-0.16,0.06-0.24,0.09
				c-0.2,0.07-0.41,0.12-0.61,0.17c-0.13,0.03-0.25,0.05-0.38,0.07c0.35-0.06-0.03,0-0.11,0c-0.24,0.02-0.47,0.02-0.71,0.01
				c-0.11,0-0.22-0.01-0.32-0.02c-0.05,0-0.48-0.06-0.12,0c-0.48-0.07-0.93-0.21-1.39-0.36c-0.4-0.13,0.14,0.09-0.08-0.03
				c-0.1-0.05-0.2-0.1-0.3-0.15c-0.2-0.11-0.39-0.22-0.57-0.35c0.26,0.19-0.08-0.08-0.11-0.1c-0.06-0.06-0.12-0.13-0.19-0.19
				c-0.28-0.26,0.1,0.22-0.09-0.11c-0.06-0.11-0.12-0.21-0.19-0.32c-0.18-0.31,0.05,0.28-0.02-0.07c-0.02-0.09-0.05-0.19-0.07-0.28
				c-0.03-0.1-0.02-0.35-0.01,0c-0.01-0.12-0.02-0.23-0.01-0.35c0-0.08,0.01-0.15,0.01-0.23c0-0.38-0.09,0.3,0.01-0.06
				c0.06-0.23,0.13-0.45,0.19-0.68c-0.08,0.27-0.05,0.11-0.01,0.03c0.05-0.11,0.11-0.22,0.17-0.32c0.06-0.11,0.13-0.2,0.19-0.31
				c0.03-0.05,0.17-0.23-0.02,0.01c0.12-0.16,0.26-0.31,0.41-0.45c0.09-0.08,0.18-0.16,0.27-0.24c-0.26,0.22,0.02,0,0.08-0.05
				c0.12-0.07,0.24-0.14,0.36-0.21c0.04-0.02,0.41-0.19,0.17-0.09c0.27-0.11,0.55-0.19,0.83-0.26c0.14-0.03,0.29-0.06,0.43-0.09
				c-0.29,0.05,0.12-0.01,0.18-0.02c0.29-0.02,0.59-0.03,0.89-0.02c0.15,0,0.3,0.01,0.45,0.02c0.1,0.01,0.2,0.02,0.3,0.03
				c0.17,0.02,0.2,0.02,0.1,0.01c-0.21-0.03,0.27,0.05,0.24,0.04c0.17,0.03,0.34,0.07,0.51,0.1c0.12,0.03,0.24,0.06,0.36,0.09
				c0.09,0.02,0.17,0.05,0.26,0.07c-0.14-0.07-0.16-0.07-0.06-0.02c0.02,0.01,0.04,0.02,0.06,0.03c0.14,0.09,0.15,0.09,0.01-0.02
				c0.12,0.12,0.12,0.11,0-0.04c-0.14-0.28-0.14-0.59,0.02-0.91c-0.34,0.71-0.22,1.65,0.54,2.05
				C217.25,233.38,218.27,233.25,218.63,232.49L218.63,232.49z"/>
		</g>
	</g>
	<g>
		<g>
			<path class="st0" d="M259.03,286.98c0.37-0.9-0.05-1.94-0.73-2.56c-0.62-0.57-1.4-0.84-2.21-1.02c-1.53-0.35-3.23-0.43-4.73,0.11
				c-1.45,0.52-2.64,1.46-3.45,2.79c-0.7,1.17-1.12,2.62-1.02,3.99c0.11,1.57,0.78,3.05,2.03,4.04c1.2,0.95,2.62,1.48,4.14,1.61
				c2.87,0.24,5.59-1.41,6.63-4.09c0.98-2.52,0.38-6.16-2.14-7.57c-0.69-0.38-1.67-0.19-2.05,0.54c-0.37,0.71-0.19,1.65,0.54,2.05
				c0.09,0.05,0.17,0.1,0.25,0.15c0.28,0.17-0.22-0.23,0,0.01c0.07,0.07,0.14,0.14,0.21,0.21c0.02,0.02,0.04,0.05,0.07,0.07
				c0.1,0.12,0.08,0.1-0.05-0.07c0.06,0.01,0.24,0.38,0.27,0.44c0.04,0.07,0.17,0.4,0.02,0.02c0.05,0.13,0.1,0.27,0.14,0.4
				c0.06,0.19,0.1,0.39,0.14,0.59c0.02,0.1,0.03,0.36,0-0.01c0.01,0.11,0.02,0.22,0.03,0.34c0.01,0.23,0.01,0.45,0,0.68
				c-0.01,0.11-0.02,0.23-0.03,0.34c0.02-0.25,0.02-0.13-0.01,0.05c-0.04,0.22-0.1,0.44-0.17,0.65c-0.03,0.11-0.07,0.21-0.11,0.31
				c0.13-0.37,0.01-0.03-0.03,0.04c-0.08,0.16-0.18,0.31-0.27,0.46c-0.17,0.29,0.2-0.2-0.07,0.1c-0.12,0.13-0.23,0.26-0.35,0.38
				c-0.09,0.09-0.19,0.17-0.28,0.25c0.05-0.04,0.23-0.16,0-0.01c-0.21,0.14-0.42,0.25-0.64,0.37c-0.34,0.19,0.28-0.08-0.09,0.04
				c-0.12,0.04-0.23,0.08-0.35,0.11c-0.23,0.07-0.47,0.12-0.71,0.16c0.38-0.06-0.02-0.01-0.09,0c-0.12,0.01-0.24,0.01-0.37,0.01
				c-0.21,0-0.41-0.02-0.61-0.03c0.38,0.03-0.02,0-0.09-0.02c-0.12-0.02-0.24-0.05-0.36-0.08c-0.12-0.03-0.24-0.06-0.36-0.1
				c-0.06-0.02-0.55-0.2-0.24-0.07c-0.2-0.09-0.41-0.19-0.6-0.3c-0.12-0.07-0.23-0.14-0.34-0.22c-0.35-0.22,0.17,0.19-0.13-0.1
				c-0.1-0.1-0.2-0.19-0.3-0.29c-0.02-0.02-0.29-0.37-0.12-0.13c-0.05-0.08-0.11-0.16-0.16-0.24c-0.04-0.06-0.27-0.57-0.14-0.23
				c-0.09-0.23-0.14-0.47-0.2-0.71c-0.1-0.38,0,0.3-0.01-0.09c0-0.08-0.01-0.16-0.01-0.25c-0.01-0.25,0.01-0.5,0.03-0.75
				c-0.04,0.38,0.02-0.04,0.03-0.1c0.03-0.16,0.08-0.33,0.13-0.49c0.02-0.08,0.05-0.16,0.08-0.24c0.02-0.05,0.19-0.43,0.04-0.11
				c0.11-0.23,0.22-0.45,0.35-0.66c0.06-0.1,0.13-0.21,0.2-0.31c0.16-0.23,0.02-0.03-0.01,0.01c0.18-0.21,0.37-0.4,0.58-0.59
				c0.28-0.26-0.31,0.17,0.09-0.06c0.17-0.1,0.33-0.21,0.51-0.3c0.09-0.04,0.17-0.09,0.26-0.13c-0.25,0.11,0.27-0.08,0.32-0.09
				c0.14-0.04,0.28-0.07,0.42-0.1c0.09-0.02,0.19-0.04,0.28-0.05c-0.16,0.02-0.15,0.02,0.03,0c0.29-0.01,0.58-0.03,0.87-0.02
				c0.15,0.01,0.29,0.02,0.44,0.03c0.18,0.02,0.19,0.02,0.04,0c0.1,0.01,0.19,0.03,0.29,0.05c0.29,0.05,0.58,0.12,0.86,0.2
				c0.14,0.04,0.28,0.08,0.42,0.13c-0.34-0.11,0.11,0.06,0.19,0.13c-0.04-0.02-0.07-0.05-0.11-0.07c0.12,0.13,0.12,0.12,0-0.02
				c-0.05-0.1-0.07-0.21-0.07-0.33c0.04-0.21,0.03-0.23-0.03-0.06c-0.3,0.73,0.32,1.68,1.05,1.85
				C258.05,288.23,258.71,287.76,259.03,286.98L259.03,286.98z"/>
		</g>
	</g>
	<g>
		<g>
			<path class="st0" d="M278.66,359.04c0.34-0.83-0.05-1.8-0.67-2.38c-0.55-0.51-1.24-0.75-1.95-0.92c-1.32-0.3-2.78-0.37-4.08,0.09
				c-1.28,0.46-2.32,1.27-3.02,2.44c-0.61,1.01-0.97,2.27-0.89,3.46c0.09,1.37,0.67,2.68,1.76,3.54c1.06,0.84,2.29,1.3,3.63,1.41
				c2.51,0.21,4.87-1.26,5.77-3.6c0.86-2.21,0.3-5.37-1.9-6.6c-0.69-0.38-1.67-0.19-2.05,0.54c-0.37,0.71-0.19,1.65,0.54,2.05
				c0.07,0.04,0.14,0.08,0.21,0.13c0.25,0.15-0.25-0.25-0.05-0.03c0.06,0.06,0.12,0.11,0.17,0.18c0.02,0.02,0.04,0.04,0.05,0.06
				c0.1,0.12,0.07,0.09-0.08-0.11c0.02,0.11,0.17,0.26,0.22,0.36c0.08,0.16,0.04,0.28,0-0.04c0.02,0.11,0.09,0.23,0.12,0.34
				c0.05,0.16,0.08,0.32,0.12,0.49c0.04,0.2-0.07,0.17-0.01-0.08c-0.02,0.07,0.02,0.21,0.02,0.28c0.01,0.19,0.01,0.38,0,0.57
				c0,0.06-0.05,0.23-0.02,0.28c-0.05-0.12,0.05-0.32,0-0.03c-0.04,0.18-0.08,0.36-0.14,0.54c-0.02,0.06-0.1,0.2-0.09,0.26
				c0.03-0.06,0.05-0.13,0.08-0.19c-0.02,0.06-0.05,0.11-0.08,0.16c-0.07,0.13-0.15,0.26-0.23,0.39c-0.15,0.26,0.22-0.23-0.02,0.03
				c-0.1,0.11-0.19,0.21-0.3,0.31c-0.06,0.05-0.16,0.19-0.24,0.21c0.02-0.01,0.29-0.2,0.05-0.05c-0.18,0.11-0.35,0.21-0.53,0.31
				c-0.3,0.17,0.31-0.1-0.02,0.01c-0.1,0.03-0.19,0.07-0.29,0.1c-0.09,0.03-0.55,0.18-0.6,0.13c0.07-0.01,0.13-0.02,0.2-0.03
				c-0.07,0.01-0.14,0.01-0.2,0.02c-0.1,0.01-0.2,0.01-0.31,0.01c-0.05,0-0.5,0.01-0.51-0.03c0.07,0.01,0.13,0.02,0.2,0.03
				c-0.07-0.01-0.14-0.02-0.2-0.03c-0.1-0.02-0.2-0.04-0.3-0.07s-0.2-0.05-0.3-0.08c-0.07-0.02-0.53-0.17-0.14-0.04
				c-0.17-0.06-0.34-0.16-0.5-0.25c-0.1-0.06-0.19-0.12-0.29-0.18c-0.31-0.19,0.2,0.21-0.05-0.04c-0.08-0.08-0.17-0.16-0.25-0.24
				c-0.05-0.05-0.26-0.35-0.06-0.06c-0.04-0.07-0.09-0.13-0.13-0.2c-0.04-0.07-0.08-0.14-0.12-0.21c-0.07-0.15-0.06-0.12,0.02,0.08
				c-0.11-0.09-0.14-0.46-0.17-0.59c-0.09-0.34,0.01,0.34,0-0.01c0-0.07-0.01-0.14-0.01-0.21c0-0.14-0.05-0.51,0.03-0.62
				c-0.01,0.06-0.02,0.13-0.02,0.19c0.01-0.07,0.02-0.14,0.04-0.21c0.03-0.14,0.06-0.27,0.11-0.41c0.02-0.07,0.04-0.13,0.07-0.2
				c0.01-0.03,0.02-0.07,0.04-0.1c0.06-0.15,0.05-0.13-0.03,0.07c0-0.15,0.21-0.42,0.29-0.55c0.05-0.09,0.11-0.17,0.17-0.26
				c0.16-0.24-0.05,0.06-0.05,0.06c-0.01-0.11,0.4-0.42,0.48-0.49c0.25-0.23-0.33,0.19,0.03-0.01c0.14-0.08,0.28-0.17,0.43-0.25
				c0.07-0.04,0.15-0.07,0.22-0.1c-0.34,0.15,0.14-0.03,0.21-0.05c0.12-0.03,0.23-0.06,0.35-0.09c0.08-0.02,0.16-0.03,0.24-0.04
				c-0.2,0.03-0.21,0.03-0.04,0.01c0.24-0.01,0.48-0.02,0.72-0.01c0.12,0,0.24,0.02,0.36,0.02c0.17,0.02,0.16,0.02-0.04-0.01
				c0.08,0.01,0.16,0.03,0.24,0.04c0.24,0.04,0.48,0.1,0.72,0.16c0.06,0.02,0.32,0.06,0.35,0.11c-0.2-0.09-0.23-0.1-0.08-0.03
				c0.06,0.03,0.12,0.07,0.18,0.11c-0.33-0.4,0.1,0.32-0.18-0.16c-0.06-0.12-0.09-0.26-0.09-0.4c0.05-0.24,0.04-0.28-0.01-0.11
				c-0.3,0.73,0.32,1.68,1.05,1.85C277.69,360.28,278.34,359.82,278.66,359.04L278.66,359.04z"/>
		</g>
	</g>
	<g>
		<g>
			<path class="st0" d="M344.84,250.33c0.34-0.83-0.05-1.8-0.67-2.38c-0.55-0.51-1.24-0.75-1.95-0.92c-1.32-0.3-2.78-0.37-4.08,0.09
				c-1.28,0.46-2.32,1.27-3.02,2.44c-0.61,1.01-0.97,2.27-0.89,3.46c0.09,1.37,0.67,2.68,1.76,3.54c1.06,0.84,2.29,1.3,3.63,1.41
				c2.51,0.21,4.87-1.26,5.77-3.6c0.86-2.21,0.3-5.37-1.9-6.6c-0.69-0.38-1.67-0.19-2.05,0.54c-0.37,0.71-0.19,1.65,0.54,2.05
				c0.07,0.04,0.14,0.08,0.21,0.13c0.25,0.15-0.25-0.25-0.05-0.03c0.06,0.06,0.12,0.11,0.17,0.18c0.02,0.02,0.04,0.04,0.05,0.06
				c0.1,0.12,0.07,0.09-0.08-0.11c0.02,0.11,0.17,0.26,0.22,0.36c0.08,0.16,0.04,0.28,0-0.04c0.02,0.11,0.09,0.23,0.12,0.34
				c0.05,0.16,0.08,0.32,0.12,0.49c0.04,0.2-0.07,0.17-0.01-0.08c-0.02,0.07,0.02,0.21,0.02,0.28c0.01,0.19,0.01,0.38,0,0.57
				c0,0.06-0.05,0.23-0.02,0.28c-0.05-0.12,0.05-0.32,0-0.03c-0.04,0.18-0.08,0.36-0.14,0.54c-0.02,0.06-0.1,0.2-0.09,0.26
				c0.03-0.06,0.05-0.13,0.08-0.19c-0.02,0.06-0.05,0.11-0.08,0.16c-0.07,0.13-0.15,0.26-0.23,0.39c-0.15,0.26,0.22-0.23-0.02,0.03
				c-0.1,0.11-0.19,0.21-0.3,0.31c-0.06,0.05-0.16,0.19-0.24,0.21c0.02-0.01,0.29-0.2,0.05-0.05c-0.18,0.11-0.35,0.21-0.53,0.31
				c-0.3,0.17,0.31-0.1-0.02,0.01c-0.1,0.03-0.19,0.07-0.29,0.1c-0.09,0.03-0.55,0.18-0.6,0.13c0.07-0.01,0.13-0.02,0.2-0.03
				c-0.07,0.01-0.14,0.01-0.2,0.02c-0.1,0.01-0.2,0.01-0.31,0.01c-0.05,0-0.5,0.01-0.51-0.03c0.07,0.01,0.13,0.02,0.2,0.03
				c-0.07-0.01-0.14-0.02-0.2-0.03c-0.1-0.02-0.2-0.04-0.3-0.07c-0.1-0.03-0.2-0.05-0.3-0.08c-0.07-0.02-0.53-0.17-0.14-0.04
				c-0.17-0.06-0.34-0.16-0.5-0.25c-0.1-0.06-0.19-0.12-0.29-0.18c-0.31-0.19,0.2,0.21-0.05-0.04c-0.08-0.08-0.17-0.16-0.25-0.24
				c-0.05-0.05-0.26-0.35-0.06-0.06c-0.04-0.07-0.09-0.13-0.13-0.2c-0.04-0.07-0.08-0.14-0.12-0.21c-0.07-0.15-0.06-0.12,0.02,0.08
				c-0.11-0.09-0.14-0.46-0.17-0.59c-0.09-0.34,0.01,0.34,0-0.01c0-0.07-0.01-0.14-0.01-0.21c0-0.14-0.05-0.51,0.03-0.62
				c-0.01,0.06-0.02,0.13-0.02,0.19c0.01-0.07,0.02-0.14,0.04-0.21c0.03-0.14,0.06-0.27,0.11-0.41c0.02-0.07,0.04-0.13,0.07-0.2
				c0.01-0.03,0.02-0.07,0.04-0.1c0.06-0.15,0.05-0.13-0.03,0.07c0-0.15,0.21-0.42,0.29-0.55c0.05-0.09,0.11-0.17,0.17-0.26
				c0.16-0.24-0.05,0.06-0.05,0.06c-0.01-0.11,0.4-0.42,0.48-0.49c0.25-0.23-0.33,0.19,0.03-0.01c0.14-0.08,0.28-0.17,0.43-0.25
				c0.07-0.04,0.15-0.07,0.22-0.1c-0.34,0.15,0.14-0.03,0.21-0.05c0.12-0.03,0.23-0.06,0.35-0.09c0.08-0.02,0.16-0.03,0.24-0.04
				c-0.2,0.03-0.21,0.03-0.04,0.01c0.24-0.01,0.48-0.02,0.72-0.01c0.12,0,0.24,0.02,0.36,0.02c0.17,0.02,0.16,0.02-0.04-0.01
				c0.08,0.01,0.16,0.03,0.24,0.04c0.24,0.04,0.48,0.1,0.72,0.16c0.06,0.02,0.32,0.06,0.35,0.11c-0.2-0.09-0.23-0.1-0.08-0.03
				c0.06,0.03,0.12,0.07,0.18,0.11c-0.33-0.4,0.1,0.32-0.18-0.16c-0.06-0.12-0.09-0.26-0.09-0.4c0.05-0.24,0.04-0.28-0.01-0.11
				c-0.3,0.73,0.32,1.68,1.05,1.85C343.87,251.58,344.52,251.11,344.84,250.33L344.84,250.33z"/>
		</g>
	</g>
	<g>
		<g>
			<path class="st0" d="M308.98,282.06c0.37-0.9-0.05-1.94-0.73-2.56c-0.62-0.57-1.4-0.84-2.21-1.02c-1.53-0.35-3.23-0.43-4.73,0.11
				c-1.45,0.52-2.64,1.46-3.45,2.79c-0.7,1.17-1.12,2.62-1.02,3.99c0.11,1.57,0.78,3.05,2.03,4.04c1.2,0.95,2.62,1.48,4.14,1.61
				c2.87,0.24,5.59-1.41,6.63-4.09c0.98-2.52,0.38-6.16-2.14-7.57c-0.69-0.38-1.67-0.19-2.05,0.54c-0.37,0.71-0.19,1.65,0.54,2.05
				c0.09,0.05,0.17,0.1,0.25,0.15c0.28,0.17-0.22-0.23,0,0.01c0.07,0.07,0.14,0.14,0.21,0.21c0.02,0.02,0.04,0.05,0.07,0.07
				c0.1,0.12,0.08,0.1-0.05-0.07c0.06,0.01,0.24,0.38,0.27,0.44c0.04,0.07,0.17,0.4,0.02,0.02c0.05,0.13,0.1,0.27,0.14,0.4
				c0.06,0.19,0.1,0.39,0.14,0.59c0.02,0.1,0.03,0.36,0-0.01c0.01,0.11,0.02,0.22,0.03,0.34c0.01,0.23,0.01,0.45,0,0.68
				c-0.01,0.11-0.02,0.23-0.03,0.34c0.02-0.25,0.02-0.13-0.01,0.05c-0.04,0.22-0.1,0.44-0.17,0.65c-0.03,0.11-0.07,0.21-0.11,0.31
				c0.13-0.37,0.01-0.03-0.03,0.04c-0.08,0.16-0.18,0.31-0.27,0.46c-0.17,0.29,0.2-0.2-0.07,0.1c-0.12,0.13-0.23,0.26-0.35,0.38
				c-0.09,0.09-0.19,0.17-0.28,0.25c0.05-0.04,0.23-0.16,0-0.01c-0.21,0.14-0.42,0.25-0.64,0.37c-0.34,0.19,0.28-0.08-0.09,0.04
				c-0.12,0.04-0.23,0.08-0.35,0.11c-0.23,0.07-0.47,0.12-0.71,0.16c0.38-0.06-0.02-0.01-0.09,0c-0.12,0.01-0.24,0.01-0.37,0.01
				c-0.21,0-0.41-0.02-0.61-0.03c0.38,0.03-0.02,0-0.09-0.02c-0.12-0.02-0.24-0.05-0.36-0.08c-0.12-0.03-0.24-0.06-0.36-0.1
				c-0.06-0.02-0.55-0.2-0.24-0.07c-0.2-0.09-0.41-0.19-0.6-0.3c-0.12-0.07-0.23-0.14-0.34-0.22c-0.35-0.22,0.17,0.19-0.13-0.1
				c-0.1-0.1-0.2-0.19-0.3-0.29c-0.02-0.02-0.29-0.37-0.12-0.13c-0.05-0.08-0.11-0.16-0.16-0.24c-0.04-0.06-0.27-0.57-0.14-0.23
				c-0.09-0.23-0.14-0.47-0.2-0.71c-0.1-0.38,0,0.3-0.01-0.09c0-0.08-0.01-0.16-0.01-0.25c-0.01-0.25,0.01-0.5,0.03-0.75
				c-0.04,0.38,0.02-0.04,0.03-0.1c0.03-0.16,0.08-0.33,0.13-0.49c0.02-0.08,0.05-0.16,0.08-0.24c0.02-0.05,0.19-0.43,0.04-0.11
				c0.11-0.23,0.22-0.45,0.35-0.66c0.06-0.1,0.13-0.21,0.2-0.31c0.16-0.23,0.02-0.03-0.01,0.01c0.18-0.21,0.37-0.4,0.58-0.59
				c0.28-0.26-0.31,0.17,0.09-0.06c0.17-0.1,0.33-0.21,0.51-0.3c0.09-0.04,0.17-0.09,0.26-0.13c-0.25,0.11,0.27-0.08,0.32-0.09
				c0.14-0.04,0.28-0.07,0.42-0.1c0.09-0.02,0.19-0.04,0.28-0.05c-0.16,0.02-0.15,0.02,0.03,0c0.29-0.01,0.58-0.03,0.87-0.02
				c0.15,0.01,0.29,0.02,0.44,0.03c0.18,0.02,0.19,0.02,0.04,0c0.1,0.01,0.19,0.03,0.29,0.05c0.29,0.05,0.58,0.12,0.86,0.2
				c0.14,0.04,0.28,0.08,0.42,0.13c-0.34-0.11,0.11,0.06,0.19,0.13c-0.04-0.02-0.07-0.05-0.11-0.07c0.12,0.13,0.12,0.12,0-0.02
				c-0.05-0.1-0.07-0.21-0.07-0.33c0.04-0.21,0.03-0.23-0.03-0.06c-0.3,0.73,0.32,1.68,1.05,1.85
				C308.01,283.31,308.66,282.84,308.98,282.06L308.98,282.06z"/>
		</g>
	</g>
	<g>
		<g>
			<path class="st0" d="M340.39,337.47c0.37-0.9-0.05-1.94-0.73-2.56c-0.62-0.57-1.4-0.84-2.21-1.02c-1.53-0.35-3.23-0.43-4.73,0.11
				c-1.45,0.52-2.64,1.46-3.45,2.79c-0.7,1.17-1.12,2.62-1.02,3.99c0.11,1.57,0.78,3.05,2.03,4.04c1.2,0.95,2.62,1.48,4.14,1.61
				c2.87,0.24,5.59-1.41,6.63-4.09c0.98-2.52,0.38-6.16-2.14-7.57c-0.69-0.38-1.67-0.19-2.05,0.54c-0.37,0.71-0.19,1.65,0.54,2.05
				c0.09,0.05,0.17,0.1,0.25,0.15c0.28,0.17-0.22-0.23,0,0.01c0.07,0.07,0.14,0.14,0.21,0.21c0.02,0.02,0.04,0.05,0.07,0.07
				c0.1,0.12,0.08,0.1-0.05-0.07c0.06,0.01,0.24,0.38,0.27,0.44c0.04,0.07,0.17,0.4,0.02,0.02c0.05,0.13,0.1,0.27,0.14,0.4
				c0.06,0.19,0.1,0.39,0.14,0.59c0.02,0.1,0.03,0.36,0-0.01c0.01,0.11,0.02,0.22,0.03,0.34c0.01,0.23,0.01,0.45,0,0.68
				c-0.01,0.11-0.02,0.23-0.03,0.34c0.02-0.25,0.02-0.13-0.01,0.05c-0.04,0.22-0.1,0.44-0.17,0.65c-0.03,0.11-0.07,0.21-0.11,0.31
				c0.13-0.37,0.01-0.03-0.03,0.04c-0.08,0.16-0.18,0.31-0.27,0.46c-0.17,0.29,0.2-0.2-0.07,0.1c-0.12,0.13-0.23,0.26-0.35,0.38
				c-0.09,0.09-0.19,0.17-0.28,0.25c0.05-0.04,0.23-0.16,0-0.01c-0.21,0.14-0.42,0.25-0.64,0.37c-0.34,0.19,0.28-0.08-0.09,0.04
				c-0.12,0.04-0.23,0.08-0.35,0.11c-0.23,0.07-0.47,0.12-0.71,0.16c0.38-0.06-0.02-0.01-0.09,0c-0.12,0.01-0.24,0.01-0.37,0.01
				c-0.21,0-0.41-0.02-0.61-0.03c0.38,0.03-0.02,0-0.09-0.02c-0.12-0.02-0.24-0.05-0.36-0.08c-0.12-0.03-0.24-0.06-0.36-0.1
				c-0.06-0.02-0.55-0.2-0.24-0.07c-0.2-0.09-0.41-0.19-0.6-0.3c-0.12-0.07-0.23-0.14-0.34-0.22c-0.35-0.22,0.17,0.19-0.13-0.1
				c-0.1-0.1-0.2-0.19-0.3-0.29c-0.02-0.02-0.29-0.37-0.12-0.13c-0.05-0.08-0.11-0.16-0.16-0.24c-0.04-0.06-0.27-0.57-0.14-0.23
				c-0.09-0.23-0.14-0.47-0.2-0.71c-0.1-0.38,0,0.3-0.01-0.09c0-0.08-0.01-0.16-0.01-0.25c-0.01-0.25,0.01-0.5,0.03-0.75
				c-0.04,0.38,0.02-0.04,0.03-0.1c0.03-0.16,0.08-0.33,0.13-0.49c0.02-0.08,0.05-0.16,0.08-0.24c0.02-0.05,0.19-0.43,0.04-0.11
				c0.11-0.23,0.22-0.45,0.35-0.66c0.06-0.1,0.13-0.21,0.2-0.31c0.16-0.23,0.02-0.03-0.01,0.01c0.18-0.21,0.37-0.4,0.58-0.59
				c0.28-0.26-0.31,0.17,0.09-0.06c0.17-0.1,0.33-0.21,0.51-0.3c0.09-0.04,0.17-0.09,0.26-0.13c-0.25,0.11,0.27-0.08,0.32-0.09
				c0.14-0.04,0.28-0.07,0.42-0.1c0.09-0.02,0.19-0.04,0.28-0.05c-0.16,0.02-0.15,0.02,0.03,0c0.29-0.01,0.58-0.03,0.87-0.02
				c0.15,0.01,0.29,0.02,0.44,0.03c0.18,0.02,0.19,0.02,0.04,0c0.1,0.01,0.19,0.03,0.29,0.05c0.29,0.05,0.58,0.12,0.86,0.2
				c0.14,0.04,0.28,0.08,0.42,0.13c-0.34-0.11,0.11,0.06,0.19,0.13c-0.04-0.02-0.07-0.05-0.11-0.07c0.12,0.13,0.12,0.12,0-0.02
				c-0.05-0.1-0.07-0.21-0.07-0.33c0.04-0.21,0.03-0.23-0.03-0.06c-0.3,0.73,0.32,1.68,1.05,1.85
				C339.42,338.72,340.07,338.25,340.39,337.47L340.39,337.47z"/>
		</g>
	</g>
	<g>
		<g>
			<path class="st0" d="M390.87,296.81c0.37-0.9-0.05-1.94-0.73-2.56c-0.62-0.57-1.4-0.84-2.21-1.02c-1.53-0.35-3.23-0.43-4.73,0.11
				c-1.45,0.52-2.64,1.46-3.45,2.79c-0.7,1.17-1.12,2.62-1.02,3.99c0.11,1.57,0.78,3.05,2.03,4.04c1.2,0.95,2.62,1.48,4.14,1.61
				c2.87,0.24,5.59-1.41,6.63-4.09c0.98-2.52,0.38-6.16-2.14-7.57c-0.69-0.38-1.67-0.19-2.05,0.54c-0.37,0.71-0.19,1.65,0.54,2.05
				c0.09,0.05,0.17,0.1,0.25,0.15c0.28,0.17-0.22-0.23,0,0.01c0.07,0.07,0.14,0.14,0.21,0.21c0.02,0.02,0.04,0.05,0.07,0.07
				c0.1,0.12,0.08,0.1-0.05-0.07c0.06,0.01,0.24,0.38,0.27,0.44c0.04,0.07,0.17,0.4,0.02,0.02c0.05,0.13,0.1,0.27,0.14,0.4
				c0.06,0.19,0.1,0.39,0.14,0.59c0.02,0.1,0.03,0.36,0-0.01c0.01,0.11,0.02,0.22,0.03,0.34c0.01,0.23,0.01,0.45,0,0.68
				c-0.01,0.11-0.02,0.23-0.03,0.34c0.02-0.25,0.02-0.13-0.01,0.05c-0.04,0.22-0.1,0.44-0.17,0.65c-0.03,0.11-0.07,0.21-0.11,0.31
				c0.13-0.37,0.01-0.03-0.03,0.04c-0.08,0.16-0.18,0.31-0.27,0.46c-0.17,0.29,0.2-0.2-0.07,0.1c-0.12,0.13-0.23,0.26-0.35,0.38
				c-0.09,0.09-0.19,0.17-0.28,0.25c0.05-0.04,0.23-0.16,0-0.01c-0.21,0.14-0.42,0.25-0.64,0.37c-0.34,0.19,0.28-0.08-0.09,0.04
				c-0.12,0.04-0.23,0.08-0.35,0.11c-0.23,0.07-0.47,0.12-0.71,0.16c0.38-0.06-0.02-0.01-0.09,0c-0.12,0.01-0.24,0.01-0.37,0.01
				c-0.21,0-0.41-0.02-0.61-0.03c0.38,0.03-0.02,0-0.09-0.02c-0.12-0.02-0.24-0.05-0.36-0.08c-0.12-0.03-0.24-0.06-0.36-0.1
				c-0.06-0.02-0.55-0.2-0.24-0.07c-0.2-0.09-0.41-0.19-0.6-0.3c-0.12-0.07-0.23-0.14-0.34-0.22c-0.35-0.22,0.17,0.19-0.13-0.1
				c-0.1-0.1-0.2-0.19-0.3-0.29c-0.02-0.02-0.29-0.37-0.12-0.13c-0.05-0.08-0.11-0.16-0.16-0.24c-0.04-0.06-0.27-0.57-0.14-0.23
				c-0.09-0.23-0.14-0.47-0.2-0.71c-0.1-0.38,0,0.3-0.01-0.09c0-0.08-0.01-0.16-0.01-0.25c-0.01-0.25,0.01-0.5,0.03-0.75
				c-0.04,0.38,0.02-0.04,0.03-0.1c0.03-0.16,0.08-0.33,0.13-0.49c0.02-0.08,0.05-0.16,0.08-0.24c0.02-0.05,0.19-0.43,0.04-0.11
				c0.11-0.23,0.22-0.45,0.35-0.66c0.06-0.1,0.13-0.21,0.2-0.31c0.16-0.23,0.02-0.03-0.01,0.01c0.18-0.21,0.37-0.4,0.58-0.59
				c0.28-0.26-0.31,0.17,0.09-0.06c0.17-0.1,0.33-0.21,0.51-0.3c0.09-0.04,0.17-0.09,0.26-0.13c-0.25,0.11,0.27-0.08,0.32-0.09
				c0.14-0.04,0.28-0.07,0.42-0.1c0.09-0.02,0.19-0.04,0.28-0.05c-0.16,0.02-0.15,0.02,0.03,0c0.29-0.01,0.58-0.03,0.87-0.02
				c0.15,0.01,0.29,0.02,0.44,0.03c0.18,0.02,0.19,0.02,0.04,0c0.1,0.01,0.19,0.03,0.29,0.05c0.29,0.05,0.58,0.12,0.86,0.2
				c0.14,0.04,0.28,0.08,0.42,0.13c-0.34-0.11,0.11,0.06,0.19,0.13c-0.04-0.02-0.07-0.05-0.11-0.07c0.12,0.13,0.12,0.12,0-0.02
				c-0.05-0.1-0.07-0.21-0.07-0.33c0.04-0.21,0.03-0.23-0.03-0.06c-0.3,0.73,0.32,1.68,1.05,1.85
				C389.9,298.06,390.55,297.59,390.87,296.81L390.87,296.81z"/>
		</g>
	</g>
	<g>
		<g>
			<path class="st0" d="M217.4,244.11c6.2,10.4,13.14,20.34,20.74,29.76c2.12,2.63,4.3,5.21,6.52,7.75c0.53,0.61,1.58,0.55,2.12,0
				c0.61-0.61,0.53-1.51,0-2.12c-7.8-8.92-14.96-18.38-21.43-28.31c-1.84-2.83-3.63-5.7-5.36-8.6
				C219.01,240.94,216.41,242.45,217.4,244.11L217.4,244.11z"/>
		</g>
	</g>
	<g>
		<g>
			<path class="st0" d="M265.7,290.96c8.66,0.28,17.34-0.6,25.77-2.6c1.88-0.44,1.08-3.34-0.8-2.89
				c-8.18,1.93-16.57,2.76-24.97,2.49C263.77,287.9,263.77,290.9,265.7,290.96L265.7,290.96z"/>
		</g>
	</g>
	<g>
		<g>
			<path class="st0" d="M307.3,294.97c4.66,9.92,9.9,19.56,15.71,28.86c1.66,2.65,3.37,5.28,5.12,7.88
				c0.45,0.67,1.32,0.97,2.05,0.54c0.67-0.39,0.99-1.38,0.54-2.05c-6.12-9.09-11.7-18.54-16.7-28.3c-1.43-2.79-2.8-5.6-4.13-8.43
				c-0.34-0.73-1.4-0.92-2.05-0.54C307.09,293.36,306.96,294.24,307.3,294.97L307.3,294.97z"/>
		</g>
	</g>
	<g>
		<g>
			<path class="st0" d="M344.56,334.88c2.07-1.72,4.54-2.91,6.87-4.25c2.42-1.39,4.78-2.89,7.09-4.46
				c4.67-3.17,9.12-6.64,13.5-10.21c2.44-1.99,4.85-4,7.26-6.02c0.62-0.52,0.54-1.58,0-2.12c-0.62-0.62-1.5-0.52-2.12,0
				c-8.52,7.14-17.1,14.31-26.73,19.93c-2.72,1.58-5.54,2.98-7.97,5c-0.62,0.52-0.54,1.59,0,2.12
				C343.05,335.5,343.93,335.4,344.56,334.88L344.56,334.88z"/>
		</g>
	</g>
</g>
</svg>
